<svg width="94" height="29" viewBox="0 0 94 29" fill="none" xmlns="http://www.w3.org/2000/svg">
<path fill-rule="evenodd" clip-rule="evenodd" d="M27.0531 20.1181C27.1013 20.236 27.1494 20.3539 27.1975 20.4686C27.5747 21.5356 27.6906 22.5442 27.4601 23.553C27.1406 25.6865 25.7188 27.5308 23.6869 28.3386C22.9615 28.656 22.1491 28.8 21.3364 28.8C21.1041 28.8 20.8136 28.7715 20.5814 28.7421C19.6237 28.6269 18.6374 28.3101 17.6791 27.7624C16.5182 27.0991 15.3573 26.1481 14.0804 24.7643C12.8035 26.1481 11.6716 27.0991 10.4817 27.7624C9.52376 28.3101 8.5371 28.6269 7.57915 28.7421C7.34662 28.7712 7.05668 28.8 6.82444 28.8C6.01204 28.8 5.22834 28.656 4.47363 28.3386C2.47075 27.5308 1.0199 25.7153 0.700682 23.553C0.555134 22.5148 0.671398 21.5057 1.0489 20.4392C1.19387 20.0646 1.33883 19.7187 1.4838 19.4013C1.58702 19.1709 1.6903 18.9461 1.79101 18.727C1.9169 18.453 2.03878 18.1877 2.15153 17.9311L2.18081 17.8738C4.18341 13.5496 6.35997 9.16772 8.5948 4.84377L8.68207 4.6704C8.91964 4.22155 9.1517 3.76985 9.37821 3.31539C9.66815 2.79614 9.98766 2.24837 10.4231 1.72969C11.3805 0.634451 12.6864 0 14.1378 0C15.5597 0 16.8948 0.634451 17.8235 1.78758C18.2516 2.26619 18.5315 2.76852 18.8001 3.25085L18.8684 3.37328C19.0944 3.82802 19.3264 4.27973 19.5646 4.72829L19.6516 4.90166C21.9157 9.22561 24.0629 13.6072 26.0658 17.9317L26.0948 17.9605C26.2082 18.2184 26.3309 18.4856 26.4576 18.7618C26.5575 18.9792 26.6598 19.2022 26.7623 19.4307C26.8592 19.6428 26.9562 19.8805 27.0531 20.1181ZM49.6019 7.23649C49.6019 8.27442 48.76 9.11018 47.715 9.11018C46.6701 9.11018 45.8287 8.27442 45.8287 7.23649C45.8287 6.19856 46.6414 5.3628 47.715 5.3628C48.7895 5.3916 49.6019 6.22765 49.6019 7.23649ZM41.8231 11.0131V11.4744C41.8231 11.4744 40.9237 10.3207 39.0081 10.3207C35.8448 10.3207 33.3775 12.7137 33.3775 16.0288C33.3775 19.3154 35.8159 21.7368 39.0081 21.7368C40.9527 21.7368 41.8231 20.5549 41.8231 20.5549V21.0448C41.8231 21.2755 41.9976 21.448 42.2296 21.448H44.5801V10.6082H42.2296C41.9976 10.609 41.8231 10.8112 41.8231 11.0131ZM39.474 19.1427C40.5186 19.1427 41.3896 18.5949 41.8245 17.9605V14.0973C41.4186 13.492 40.4899 12.9154 39.474 12.9154C37.6166 12.9154 36.1942 14.0685 36.1942 16.0289C36.1942 17.9896 37.6166 19.1427 39.474 19.1427ZM46.3232 10.6091H49.1092V21.4489H46.3232V10.6091ZM85.1266 11.4743C85.1266 11.4743 86.0266 10.3206 87.9422 10.3206C91.0764 10.3206 93.5432 12.7432 93.5432 16.0298C93.5432 19.3163 91.0764 21.7372 87.9126 21.7372C85.9976 21.7372 85.0976 20.5553 85.0976 20.5553V21.0452C85.0976 21.2471 84.9239 21.4489 84.6917 21.4489H82.3406V5.39154H85.1266V11.4743ZM87.4777 19.1136C86.4035 19.1136 85.5621 18.5664 85.1266 17.9317V14.0685C85.5621 13.492 86.4908 12.8866 87.4777 12.8866C89.3351 12.8866 90.7572 14.0397 90.7572 16.0001C90.7572 17.9605 89.3353 19.1136 87.4777 19.1136ZM80.8887 21.4776V15.0202C80.8887 13.2039 80.5109 12.1662 79.5245 11.359C78.7119 10.6672 77.6959 10.3207 76.4767 10.3207C75.4031 10.3207 74.3295 10.6381 73.5168 11.4744V11.0131C73.5168 10.8112 73.3425 10.6093 73.1103 10.6093H70.9053V21.4491H73.6907V13.8959C74.2431 13.2614 75.114 12.8289 75.9554 12.8289C77.5217 12.8289 78.1021 13.55 78.1021 15.337V21.4776H80.8887ZM64.143 10.3206C62.228 10.3206 61.328 11.4743 61.328 11.4743V5.39154H58.542V21.4489H60.8925C61.1247 21.4489 61.299 21.2471 61.299 21.0452V20.5553C61.299 20.5553 62.199 21.7372 64.114 21.7372C67.2778 21.7372 69.7446 19.3163 69.7446 16.0298C69.7736 12.7429 67.3068 10.3206 64.143 10.3206ZM61.328 17.9317C61.7635 18.5664 62.6049 19.1136 63.6785 19.1136C65.5364 19.1136 66.9583 17.9605 66.9583 16.0001C66.9583 14.0397 65.5364 12.8866 63.6785 12.8866C62.6921 12.8866 61.7635 13.492 61.328 14.0685V17.9317ZM56.1329 10.3206C56.9743 10.3206 57.4098 10.4651 57.4098 10.4651V13.0306C57.4098 13.0306 55.088 12.2521 53.6371 13.8957V21.4775H50.8505V10.6091H53.2016C53.4339 10.6091 53.6075 10.811 53.6075 11.0129V11.4743C54.1306 10.8686 55.2625 10.3206 56.1329 10.3206ZM14.1085 21.9676C12.5411 20.0072 11.5252 18.1624 11.1773 16.606C11.0323 15.9428 11.003 15.3662 11.0903 14.8473C11.148 14.3859 11.3225 13.9821 11.5548 13.6362C12.1062 12.8584 13.0349 12.3679 14.1088 12.3679C15.183 12.3679 16.1407 12.8293 16.6632 13.6362C16.8954 13.9821 17.0694 14.3862 17.1279 14.8473C17.2146 15.3665 17.1856 15.9716 17.0407 16.606C16.6913 18.1336 15.6754 19.9787 14.1085 21.9676ZM23.0473 26.6959C24.4692 26.1193 25.4851 24.8216 25.688 23.3226C25.8043 22.5733 25.7173 21.8521 25.4857 21.1034C25.4252 20.9027 25.3365 20.7023 25.2394 20.4828C25.1968 20.3866 25.1526 20.2867 25.1085 20.1815C24.9927 19.9511 24.8841 19.7067 24.7756 19.4623C24.6665 19.2166 24.5573 18.9708 24.4407 18.7392V18.7104C22.4045 14.3468 20.2855 10.0218 18.0847 5.73771L17.9975 5.56434C17.8838 5.35245 17.7701 5.13349 17.6562 4.91433C17.5379 4.68668 17.4195 4.45881 17.301 4.23841C17.0688 3.77791 16.8079 3.34534 16.4883 2.96951C15.8789 2.27832 15.0665 1.90307 14.1665 1.90307C13.2666 1.90307 12.4542 2.27832 11.8447 2.96951C11.5252 3.34448 11.2643 3.77704 11.032 4.23841C10.9194 4.4484 10.8067 4.66518 10.694 4.88209C10.5745 5.112 10.4549 5.34206 10.3353 5.56434L10.2483 5.73771C8.01348 10.0041 5.86591 14.3859 3.86361 18.6816L3.83432 18.7389C3.60179 19.2288 3.37013 19.7193 3.16689 20.1806C3.12238 20.2868 3.07782 20.3875 3.03492 20.4845C2.9381 20.7034 2.84976 20.9031 2.78968 21.1031C2.49916 21.9103 2.44146 22.6309 2.52845 23.3514C2.7314 24.8504 3.74734 26.1481 5.16919 26.7247C5.83663 26.9839 6.59163 27.0994 7.37504 27.0127C8.10046 26.9266 8.82559 26.6959 9.5803 26.2633C10.6252 25.6868 11.6992 24.7928 12.8891 23.4666C11.0027 21.1316 9.81283 18.9693 9.37763 17.0671C9.14539 16.202 9.11669 15.3662 9.23266 14.6163C9.34864 13.8957 9.61016 13.2325 10.0164 12.6559C10.916 11.3876 12.4255 10.6091 14.1082 10.6091C15.791 10.6091 17.3005 11.3582 18.2007 12.6559C18.6069 13.2325 18.8684 13.8957 18.9841 14.6163C19.0717 15.3662 19.0424 16.1732 18.8392 17.0671C18.4037 18.9693 17.2428 21.1031 15.3274 23.4378C16.5466 24.7643 17.5913 25.6574 18.6362 26.2345C19.3903 26.6665 20.1163 26.8972 20.8417 26.9839C21.5959 27.0706 22.3509 26.9839 23.0473 26.6959Z" fill="#212B36"/>
</svg>
