<svg width="18" height="19" viewBox="0 0 18 19" fill="none" xmlns="http://www.w3.org/2000/svg">
<path d="M9 18.0833C7.26942 18.0833 5.57769 17.5701 4.13876 16.6086C2.69983 15.6472 1.57832 14.2806 0.916058 12.6817C0.253791 11.0829 0.080512 9.32355 0.418133 7.62622C0.755753 5.92888 1.58911 4.36978 2.81282 3.14607C4.03653 1.92236 5.59563 1.08901 7.29296 0.751385C8.9903 0.413764 10.7496 0.587043 12.3485 1.24931C13.9473 1.91158 15.3139 3.03309 16.2754 4.47202C17.2368 5.91095 17.75 7.60267 17.75 9.33326C17.75 11.6539 16.8281 13.8795 15.1872 15.5204C13.5462 17.1614 11.3206 18.0833 9 18.0833ZM9 1.83326C7.51664 1.83326 6.0666 2.27312 4.83323 3.09723C3.59986 3.92134 2.63856 5.09269 2.07091 6.46313C1.50325 7.83358 1.35473 9.34158 1.64411 10.7964C1.9335 12.2513 2.64781 13.5877 3.6967 14.6366C4.7456 15.6855 6.08197 16.3998 7.53683 16.6891C8.99169 16.9785 10.4997 16.83 11.8701 16.2624C13.2406 15.6947 14.4119 14.7334 15.236 13.5C16.0601 12.2667 16.5 10.8166 16.5 9.33326C16.5 7.34413 15.7098 5.43648 14.3033 4.02996C12.8968 2.62343 10.9891 1.83326 9 1.83326Z" fill="#919EAB"/>
<path d="M11.8688 13.0833L8.37501 9.58951V3.70826H9.62501V9.07076L12.75 12.202L11.8688 13.0833Z" fill="#919EAB"/>
</svg>
