<svg width="16" height="16" viewBox="0 0 16 16" fill="none" xmlns="http://www.w3.org/2000/svg">
<path d="M14.6688 0.951172H1.33125C1.11129 0.952807 0.900811 1.04091 0.745275 1.19645C0.589738 1.35198 0.501635 1.56247 0.5 1.78242V15.1199C0.501635 15.3399 0.589738 15.5504 0.745275 15.7059C0.900811 15.8614 1.11129 15.9495 1.33125 15.9512H8.5125V10.1512H6.5625V7.88242H8.5125V6.21367C8.5125 4.27617 9.69375 3.21992 11.4312 3.21992C12.0125 3.21992 12.5938 3.21992 13.175 3.30742V5.32617H11.9813C11.0375 5.32617 10.8562 5.77617 10.8562 6.43242V7.87617H13.1063L12.8125 10.1449H10.8562V15.9512H14.6688C14.8887 15.9495 15.0992 15.8614 15.2547 15.7059C15.4103 15.5504 15.4984 15.3399 15.5 15.1199V1.78242C15.4984 1.56247 15.4103 1.35198 15.2547 1.19645C15.0992 1.04091 14.8887 0.952807 14.6688 0.951172V0.951172Z" fill="#212B36"/>
</svg>
