<svg width="93" height="26" viewBox="0 0 93 26" fill="none" xmlns="http://www.w3.org/2000/svg">
<path d="M21.6454 0H3.27733C1.99733 0 0.973328 1.024 0.973328 2.304V23.296C0.973328 24.576 1.99733 25.6 3.27733 25.6H21.6454C22.9254 25.6 23.9494 24.576 23.9494 23.296V2.304C23.9494 1.024 22.9254 0 21.6454 0ZM22.6694 23.296C22.6694 23.872 22.2214 24.32 21.6454 24.32H3.27733C2.70133 24.32 2.25333 23.872 2.25333 23.296V2.304C2.25333 1.728 2.70133 1.28 3.27733 1.28H21.6454C22.2214 1.28 22.6694 1.728 22.6694 2.304V23.296ZM6.73334 21.76L9.61334 19.2L6.73334 16.64V21.76ZM17.1014 11.392C16.5893 10.88 15.6293 10.24 14.0293 10.24C12.3013 10.24 10.5093 10.688 9.22934 11.136V3.84H6.73334V14.912L8.52534 14.08C8.52534 14.08 11.4693 12.736 14.0293 12.736C15.3093 12.736 15.6293 13.44 15.6293 14.08V21.76H18.1894V14.08C18.1894 13.888 18.1894 12.48 17.1014 11.392ZM13.7093 8H16.2693C17.4214 6.656 17.9974 5.312 18.1894 3.84H15.6293C15.3733 5.312 14.7333 6.656 13.7093 8ZM84.4294 14.016V8.32H86.9894V13.952C86.9894 15.232 87.4374 15.872 88.4614 15.872C89.4855 15.872 89.8694 15.296 89.8694 13.952V8.32H92.3655V14.016C92.3655 16.512 91.1495 17.984 88.3975 17.984C85.6454 17.984 84.4294 16.512 84.4294 14.016ZM73.6774 8.384H76.2374V11.84L78.8614 8.384H81.8054L78.6054 12.096L82.0614 17.856H79.1814L76.9414 14.08L76.2374 14.912V17.856H73.6774V8.384ZM61.5174 13.056C61.5174 9.6 63.8854 8.128 66.1894 8.128C68.4934 8.128 70.8614 9.6 70.8614 13.056C70.8614 16.512 68.4934 17.984 66.1894 17.984C63.8854 17.984 61.5174 16.576 61.5174 13.056ZM68.2374 13.056C68.2374 11.328 67.4694 10.24 66.1254 10.24C64.7814 10.24 64.0134 11.328 64.0134 13.056C64.0134 14.784 64.7814 15.936 66.1254 15.936C67.4694 15.936 68.2374 14.848 68.2374 13.056ZM51.2134 8.384H54.9254C57.3574 8.384 58.8294 9.216 58.8294 11.456C58.8294 12.928 58.1894 13.824 56.9734 14.208L58.9574 17.856H56.2694L54.4134 14.592H53.7094V17.856H51.2134V8.384ZM54.8614 12.608C55.8854 12.608 56.3974 12.288 56.3974 11.52C56.3974 10.752 55.9494 10.432 54.8614 10.432H53.7734V12.608H54.8614ZM41.4214 8.384H48.2054V10.496H43.9814V12.032H46.9894V14.016H43.9814V15.744H48.3974V17.792H41.4214V8.384ZM29.8374 8.384H32.3974V11.904H35.5334V8.384H38.0934V17.856H35.5334V14.016H32.3974V17.856H29.8374V8.384Z" fill="#212B36"/>
</svg>
