<svg width="15" height="15" viewBox="0 0 15 15" fill="none" xmlns="http://www.w3.org/2000/svg">
<path d="M11.5037 4.39652C12.0007 4.39652 12.4037 3.99358 12.4037 3.49652C12.4037 2.99947 12.0007 2.59652 11.5037 2.59652C11.0066 2.59652 10.6037 2.99947 10.6037 3.49652C10.6037 3.99358 11.0066 4.39652 11.5037 4.39652Z" fill="#212B36"/>
<path d="M7.50039 3.64861C6.73866 3.64861 5.99403 3.87449 5.36068 4.29768C4.72732 4.72087 4.23368 5.32238 3.94218 6.02612C3.65068 6.72987 3.57441 7.50425 3.72302 8.25135C3.87162 8.99844 4.23843 9.68469 4.77705 10.2233C5.31568 10.7619 6.00193 11.1287 6.74902 11.2774C7.49611 11.426 8.2705 11.3497 8.97425 11.0582C9.67799 10.7667 10.2795 10.273 10.7027 9.63969C11.1259 9.00633 11.3518 8.26171 11.3518 7.49998C11.3518 6.47853 10.946 5.49892 10.2237 4.77665C9.50145 4.05437 8.52184 3.64861 7.50039 3.64861ZM7.50039 9.99998C7.00593 9.99998 6.52258 9.85336 6.11146 9.57865C5.70034 9.30395 5.37991 8.9135 5.19069 8.45669C5.00147 7.99987 4.95196 7.49721 5.04842 7.01226C5.14489 6.5273 5.38299 6.08185 5.73262 5.73221C6.08225 5.38258 6.52771 5.14448 7.01266 5.04802C7.49761 4.95155 8.00028 5.00106 8.4571 5.19028C8.91391 5.3795 9.30436 5.69993 9.57906 6.11106C9.85376 6.52218 10.0004 7.00553 10.0004 7.49998C10.0004 8.16302 9.737 8.79891 9.26815 9.26775C8.79931 9.73659 8.16343 9.99998 7.50039 9.99998Z" fill="#212B36"/>
<path d="M7.5 1.35137C9.50256 1.35137 9.73981 1.359 10.5306 1.39513C11.0062 1.40079 11.4773 1.48814 11.9233 1.65337C12.2467 1.77818 12.5405 1.9693 12.7856 2.21444C13.0308 2.45958 13.2219 2.75331 13.3467 3.07675C13.5119 3.52276 13.5993 3.99384 13.6049 4.46944C13.641 5.26025 13.6487 5.4975 13.6487 7.50006C13.6487 9.50262 13.6411 9.73988 13.6049 10.5307C13.5993 11.0063 13.5119 11.4774 13.3467 11.9234C13.2219 12.2468 13.0308 12.5405 12.7856 12.7857C12.5405 13.0308 12.2467 13.2219 11.9233 13.3467C11.4773 13.512 11.0062 13.5993 10.5306 13.605C9.73988 13.6411 9.50275 13.6487 7.5 13.6487C5.49725 13.6487 5.26012 13.6411 4.46937 13.605C3.99378 13.5993 3.52269 13.512 3.07669 13.3467C2.75325 13.2219 2.45951 13.0308 2.21437 12.7857C1.96923 12.5405 1.77812 12.2468 1.65331 11.9234C1.48808 11.4774 1.40072 11.0063 1.39506 10.5307C1.359 9.73988 1.35131 9.50262 1.35131 7.50006C1.35131 5.4975 1.35894 5.26025 1.39506 4.46944C1.40072 3.99384 1.48808 3.52276 1.65331 3.07675C1.77811 2.7533 1.96922 2.45955 2.21436 2.2144C2.4595 1.96925 2.75324 1.77812 3.07669 1.65331C3.52269 1.48808 3.99378 1.40072 4.46937 1.39506C5.26019 1.359 5.49744 1.35137 7.5 1.35137ZM7.5 0C5.46312 0 5.20769 0.00862489 4.40775 0.0451249C3.78566 0.0576143 3.17018 0.175493 2.5875 0.39375C2.08921 0.586446 1.63667 0.881125 1.2589 1.2589C0.881125 1.63667 0.586446 2.08921 0.39375 2.5875C0.175459 3.17028 0.0575791 3.78586 0.0451249 4.40806C0.00862489 5.20769 0 5.46312 0 7.5C0 9.53687 0.00862489 9.79231 0.0451249 10.5922C0.0575863 11.2144 0.175466 11.83 0.39375 12.4128C0.586446 12.9111 0.881125 13.3636 1.2589 13.7414C1.63667 14.1192 2.08921 14.4139 2.5875 14.6066C3.17028 14.8249 3.78586 14.9427 4.40806 14.9552C5.20769 14.9914 5.46312 15 7.5 15C9.53687 15 9.79231 14.9914 10.5922 14.9549C11.2144 14.9424 11.83 14.8245 12.4128 14.6062C12.9111 14.4136 13.3636 14.1189 13.7414 13.7411C14.1192 13.3633 14.4139 12.9108 14.6066 12.4125C14.8248 11.8297 14.9427 11.2141 14.9552 10.5919C14.9914 9.79231 15 9.53687 15 7.5C15 5.46312 14.9914 5.20769 14.9549 4.40775C14.9424 3.78566 14.8245 3.17018 14.6062 2.5875C14.4135 2.08927 14.1188 1.63679 13.7411 1.25907C13.3633 0.881354 12.9108 0.586724 12.4125 0.394062C11.8297 0.175778 11.2141 0.0578989 10.5919 0.0454375C9.79231 0.00862502 9.53687 0 7.5 0Z" fill="#212B36"/>
</svg>
