<svg width="14" height="18" viewBox="0 0 14 18" fill="none" xmlns="http://www.w3.org/2000/svg">
<path d="M6.87501 10C6.25694 10 5.65275 9.81672 5.13885 9.47334C4.62495 9.12996 4.22441 8.6419 3.98788 8.07089C3.75136 7.49987 3.68947 6.87153 3.81005 6.26534C3.93063 5.65915 4.22826 5.10233 4.6653 4.66529C5.10234 4.22825 5.65916 3.93062 6.26535 3.81004C6.87154 3.68947 7.49988 3.75135 8.07089 3.98788C8.64191 4.2244 9.12997 4.62494 9.47335 5.13884C9.81673 5.65275 10 6.25693 10 6.875C9.99906 7.70351 9.66952 8.49782 9.08367 9.08367C8.49783 9.66951 7.70352 9.99906 6.87501 10ZM6.87501 5C6.50417 5 6.14166 5.10997 5.83331 5.31599C5.52497 5.52202 5.28465 5.81486 5.14273 6.15747C5.00082 6.50008 4.96369 6.87708 5.03604 7.24079C5.10838 7.60451 5.28696 7.9386 5.54918 8.20082C5.81141 8.46305 6.1455 8.64162 6.50921 8.71397C6.87293 8.78632 7.24993 8.74919 7.59254 8.60727C7.93515 8.46536 8.22799 8.22504 8.43401 7.91669C8.64004 7.60835 8.75001 7.24584 8.75001 6.875C8.74946 6.37789 8.55174 5.90129 8.20023 5.54978C7.84872 5.19826 7.37212 5.00055 6.87501 5Z" fill="#212B36"/>
<path d="M6.87501 17.5L1.60282 11.2821C1.57288 11.2464 1.38519 10.9999 1.38519 10.9999C0.484508 9.81355 -0.00210416 8.3645 6.83948e-06 6.875C6.83948e-06 5.05164 0.724335 3.30295 2.01365 2.01364C3.30296 0.724328 5.05164 0 6.87501 0C8.69837 0 10.4471 0.724328 11.7364 2.01364C13.0257 3.30295 13.75 5.05164 13.75 6.875C13.7522 8.36389 13.266 9.81239 12.3658 10.9983L12.3648 10.9999C12.3648 10.9999 12.1773 11.2464 12.1494 11.2795L6.87501 17.5ZM2.38282 10.2469C2.38344 10.2473 2.52869 10.4395 2.56194 10.4809L6.87501 15.5674L11.1938 10.4737C11.2212 10.4392 11.3677 10.2456 11.368 10.2451C12.1038 9.2758 12.5014 8.09195 12.5 6.875C12.5 5.38316 11.9074 3.95242 10.8525 2.89752C9.79759 1.84263 8.36685 1.25 6.87501 1.25C5.38316 1.25 3.95242 1.84263 2.89753 2.89752C1.84264 3.95242 1.25001 5.38316 1.25001 6.875C1.24862 8.09261 1.64656 9.27708 2.38282 10.2469Z" fill="#212B36"/>
</svg>
