<svg width="74" height="20" viewBox="0 0 74 20" fill="none" xmlns="http://www.w3.org/2000/svg">
<path fill-rule="evenodd" clip-rule="evenodd" d="M10.3247 18.7109C9.66988 18.8277 9.00816 18.8956 8.33547 18.9647C7.8823 19.0112 7.42414 19.0582 6.95976 19.1211L3.44085 8.65239V19.5704C2.45206 19.6761 1.5415 19.8136 0.610332 19.9542L0.306641 20V0H3.22946L7.22892 11.3478V0H10.3247V18.7109ZM16.3827 7.32422C16.9914 7.32422 17.7654 7.30895 18.5232 7.29399C19.2497 7.27965 19.9612 7.26561 20.4977 7.26561V10.3905C19.1324 10.3905 17.5365 10.3905 16.3827 10.4492V15.0977C16.8954 15.0644 17.408 15.0281 17.921 14.9917C19.217 14.8997 20.5158 14.8075 21.8244 14.7655V17.7732L13.3061 18.4569V0H21.8244V3.125H16.3827V7.32422ZM30.0739 3.12508H33.2658L33.2659 0H23.8055V3.12508H26.9974V17.539C27.9972 17.5001 29.0355 17.5001 30.0739 17.5001V3.12508ZM38.2638 7.10944H42.4749V10.2344H38.2638V17.3243H35.2447V0H43.8401V3.125H38.2638V7.10944ZM52.672 14.7782C51.4046 14.6989 50.1176 14.6183 48.8407 14.5898V0H45.7642V17.539C48.5716 17.5978 51.3213 17.7733 54.0709 17.9492V14.8632C53.6085 14.8369 53.1413 14.8076 52.672 14.7782ZM56.6656 18.1641L56.8271 18.1737C57.7597 18.2293 58.7393 18.2878 59.6844 18.3984V0H56.6656V18.1641ZM69.2592 9.51175L73.1626 0H69.7976L67.6439 5.25392L65.6249 0H62.3177L65.8943 9.39445L61.9333 18.5546C62.3943 18.6192 62.8488 18.6671 63.3021 18.7149C63.9453 18.7827 64.5863 18.8503 65.2406 18.965L67.4902 13.6524L69.7013 19.4336C69.9896 19.4824 70.2778 19.5324 70.566 19.5824C71.4315 19.7326 72.2971 19.8828 73.1626 20L69.2592 9.51175Z" fill="#212B36"/>
</svg>
