<svg width="86" height="26" viewBox="0 0 86 26" fill="none" xmlns="http://www.w3.org/2000/svg">
<path d="M13.1069 0C6.03771 0 0.306702 5.73085 0.306702 12.8001C0.306702 19.8696 6.03771 25.6 13.1069 25.6C20.1769 25.6 25.9073 19.8696 25.9073 12.8001C25.9073 5.73131 20.1769 0.000611402 13.1068 0.000611402L13.1069 0ZM18.977 18.4614C18.9224 18.5509 18.8507 18.6287 18.7659 18.6905C18.6812 18.7522 18.5851 18.7967 18.4831 18.8212C18.3812 18.8458 18.2754 18.85 18.1719 18.8336C18.0683 18.8173 17.969 18.7806 17.8796 18.7258C14.8742 16.8901 11.0908 16.4743 6.63521 17.4923C6.42889 17.5392 6.21239 17.5023 6.03328 17.3897C5.85418 17.277 5.72712 17.0979 5.68004 16.8916C5.65659 16.7895 5.65352 16.6837 5.671 16.5804C5.68848 16.4771 5.72617 16.3782 5.78191 16.2895C5.83765 16.2007 5.91035 16.1238 5.99584 16.0632C6.08134 16.0026 6.17794 15.9595 6.28013 15.9363C11.1561 14.8223 15.3386 15.3019 18.7126 17.3639C19.0886 17.5947 19.2078 18.0854 18.977 18.4614ZM20.5438 14.9761C20.2549 15.4456 19.6404 15.5939 19.1712 15.305C15.7305 13.1902 10.4857 12.5777 6.41602 13.813C5.88822 13.9724 5.33077 13.675 5.17058 13.1481C5.09415 12.8948 5.12128 12.6215 5.24604 12.3882C5.3708 12.1549 5.583 11.9806 5.8361 11.9035C10.4848 10.4929 16.2639 11.1762 20.2151 13.6042C20.6844 13.8931 20.8326 14.5076 20.5438 14.9762V14.9761ZM20.6783 11.3468C16.5528 8.89641 9.74634 8.6711 5.80752 9.86655C5.17502 10.0584 4.50614 9.70132 4.31446 9.06882C4.2223 8.76494 4.25459 8.4369 4.40424 8.15683C4.5539 7.87676 4.80866 7.66759 5.1125 7.57531C9.634 6.20271 17.1505 6.4679 21.9002 9.28755C22.0355 9.36763 22.1538 9.47363 22.2481 9.59948C22.3425 9.72532 22.411 9.86854 22.4499 10.0209C22.4888 10.1733 22.4973 10.3319 22.4748 10.4876C22.4524 10.6432 22.3994 10.7929 22.319 10.9281C21.9827 11.497 21.246 11.6846 20.6789 11.3468H20.6783ZM35.1319 11.8163C32.9217 11.2893 32.5288 10.9194 32.5288 10.1421C32.5288 9.40785 33.2197 8.91368 34.2484 8.91368C35.245 8.91368 36.2324 9.28893 37.2688 10.0614C37.2993 10.0848 37.3391 10.0941 37.3773 10.088C37.3965 10.0853 37.415 10.0786 37.4315 10.0685C37.4481 10.0583 37.4624 10.0449 37.4736 10.029L38.5527 8.50786C38.574 8.4777 38.583 8.44055 38.5779 8.40398C38.5728 8.3674 38.554 8.33415 38.5252 8.31099C37.2917 7.32158 35.9038 6.84056 34.2805 6.84056C31.8945 6.84056 30.2269 8.27262 30.2269 10.3216C30.2269 12.5188 31.6652 13.2968 34.1506 13.8974C36.2645 14.3845 36.6222 14.7926 36.6222 15.5221C36.6222 16.3306 35.9007 16.8335 34.7391 16.8335C33.449 16.8335 32.3959 16.3979 31.2189 15.3799C31.1896 15.3551 31.1518 15.3425 31.1134 15.3447C31.0737 15.3478 31.0385 15.3661 31.0141 15.3952L29.8035 16.835C29.7531 16.8962 29.7592 16.9848 29.8173 17.0368C31.1868 18.2596 32.8712 18.9047 34.6902 18.9047C37.2611 18.9047 38.9226 17.4999 38.9226 15.3249C38.9272 13.4896 37.8282 12.4731 35.1365 11.8183L35.1319 11.8163ZM44.7401 9.63667C43.6258 9.63667 42.7118 10.0757 41.9567 10.9752V9.9627C41.9569 9.92441 41.9418 9.88763 41.9149 9.86043C41.8879 9.83323 41.8513 9.81784 41.813 9.81764H39.8336C39.7541 9.81764 39.6899 9.88276 39.6899 9.9627V21.2127C39.6899 21.2922 39.7541 21.3579 39.8336 21.3579H41.813C41.8925 21.3579 41.9567 21.2922 41.9567 21.2127V17.662C42.7118 18.5072 43.6258 18.9215 44.7401 18.9215C46.8113 18.9215 48.9084 17.3272 48.9084 14.2795C48.9114 11.2312 46.8143 9.63651 44.7417 9.63651L44.7401 9.63667ZM46.6064 14.2795C46.6064 15.8308 45.6511 16.9145 44.2816 16.9145C42.9288 16.9145 41.9078 15.7819 41.9078 14.2795C41.9078 12.777 42.9288 11.6447 44.2816 11.6447C45.6282 11.6445 46.6064 12.7524 46.6064 14.2794V14.2795ZM54.2811 9.63667C51.6139 9.63667 49.5244 11.6904 49.5244 14.3127C49.5244 16.9069 51.6001 18.9383 54.249 18.9383C56.9254 18.9383 59.021 16.8916 59.021 14.2795C59.021 11.6763 56.9392 9.63697 54.2811 9.63697V9.63667ZM54.2811 16.9298C52.8626 16.9298 51.7927 15.7895 51.7927 14.2788C51.7927 12.7611 52.826 11.6598 54.249 11.6598C55.6766 11.6598 56.7527 12.7996 56.7527 14.3119C56.7527 15.8293 55.7133 16.9298 54.2811 16.9298ZM64.7163 9.81764H62.5381V7.59121C62.5382 7.57226 62.5346 7.55348 62.5274 7.53594C62.5202 7.51841 62.5097 7.50245 62.4963 7.489C62.483 7.47554 62.4671 7.46485 62.4496 7.45752C62.4322 7.4502 62.4134 7.44639 62.3945 7.44631H60.415C60.3356 7.44631 60.2698 7.51142 60.2698 7.59121V9.81764H59.3191C59.2396 9.81764 59.1754 9.88276 59.1754 9.9627V11.6635C59.1754 11.7433 59.2396 11.8085 59.3191 11.8085H60.2698V16.2099C60.2698 17.9875 61.1548 18.8894 62.9019 18.8894C63.6112 18.8894 64.1996 18.7426 64.7545 18.4278C64.8003 18.4033 64.8279 18.3544 64.8279 18.3024V16.6822C64.8279 16.6333 64.8019 16.5859 64.7591 16.5599C64.7383 16.5466 64.7143 16.539 64.6896 16.5379C64.6649 16.5369 64.6404 16.5423 64.6184 16.5538C64.2378 16.7449 63.8695 16.8335 63.4568 16.8335C62.8224 16.8335 62.5381 16.5446 62.5381 15.8996V11.8093H64.7163C64.7958 11.8093 64.8599 11.7442 64.8599 11.6642V9.96361C64.8606 9.94464 64.8574 9.92573 64.8505 9.90803C64.8436 9.89033 64.8332 9.87421 64.8199 9.86065C64.8066 9.84709 64.7907 9.83637 64.7732 9.82913C64.7556 9.8219 64.7368 9.8183 64.7178 9.81856L64.7163 9.81764ZM72.3038 9.82635V9.5529C72.3038 8.74845 72.6126 8.3897 73.3035 8.3897C73.7162 8.3897 74.0478 8.47163 74.4193 8.59544C74.4651 8.60981 74.5125 8.60263 74.5492 8.57526C74.5678 8.56184 74.5829 8.54414 74.5933 8.52366C74.6037 8.50319 74.609 8.48052 74.6088 8.45757V6.78996C74.6092 6.75882 74.5994 6.7284 74.5809 6.70333C74.5624 6.67826 74.5363 6.65989 74.5064 6.65102C74.1151 6.53439 73.6137 6.41471 72.8617 6.41471C71.0351 6.41471 70.0676 7.44401 70.0676 9.39027V9.80908H69.1169C69.0374 9.80908 68.9717 9.8742 68.9717 9.95398V11.6635C68.9717 11.7433 69.0374 11.8085 69.1169 11.8085H70.0676V18.5959C70.0676 18.6769 70.1333 18.7411 70.2128 18.7411H72.1907C72.2717 18.7411 72.3359 18.6769 72.3359 18.5959V11.809H74.1839L77.0147 18.5959C76.6937 19.3082 76.3773 19.4503 75.9463 19.4503C75.5978 19.4503 75.2294 19.3464 74.8549 19.14C74.8194 19.1221 74.7785 19.1183 74.7403 19.1293C74.702 19.1431 74.67 19.1706 74.6547 19.2073L73.9837 20.6793C73.9515 20.7496 73.9791 20.8306 74.0463 20.8673C74.7464 21.2463 75.3777 21.4084 76.1587 21.4084C77.62 21.4084 78.4286 20.7266 79.1393 18.8955L82.5724 10.0244C82.5813 10.0025 82.5846 9.9787 82.5819 9.95517C82.5792 9.93164 82.5707 9.90916 82.5571 9.88979C82.5442 9.8704 82.5267 9.8545 82.5061 9.84352C82.4856 9.83253 82.4627 9.82679 82.4394 9.82681H80.3789C80.3163 9.82681 80.2613 9.86609 80.2414 9.92403L78.1305 15.9516L75.8194 9.92005C75.8091 9.89272 75.7907 9.86917 75.7666 9.85252C75.7426 9.83587 75.7141 9.8269 75.6849 9.82681H72.3038V9.82635ZM67.9048 9.81764H65.9253C65.8458 9.81764 65.7801 9.88276 65.7801 9.9627V18.5959C65.7801 18.6769 65.8458 18.7411 65.9253 18.7411H67.9048C67.9842 18.7411 68.05 18.6769 68.05 18.5959V9.96331C68.05 9.94423 68.0463 9.92534 68.039 9.90771C68.0317 9.89009 68.021 9.87407 68.0075 9.86059C67.994 9.84711 67.978 9.83643 67.9604 9.82917C67.9427 9.8219 67.9238 9.81819 67.9048 9.81825V9.81764ZM66.9265 5.88646C66.1424 5.88646 65.5065 6.5211 65.5065 7.30507C65.5065 8.0895 66.1424 8.72491 66.9265 8.72491C67.7106 8.72491 68.345 8.0895 68.345 7.30507C68.345 6.52125 67.7091 5.88646 66.9265 5.88646ZM84.2629 12.5936C83.4803 12.5936 82.8704 11.9646 82.8704 11.2008C82.8704 10.437 83.4879 9.80083 84.2705 9.80083C85.0531 9.80083 85.663 10.4297 85.663 11.1928C85.663 11.9566 85.0455 12.5936 84.2629 12.5936ZM84.2705 9.93931C83.5567 9.93931 83.0172 10.5064 83.0172 11.2008C83.0172 11.8949 83.5537 12.4543 84.2629 12.4543C84.9767 12.4543 85.5163 11.8877 85.5163 11.1928C85.5163 10.4987 84.9798 9.93931 84.2705 9.93931ZM84.5793 11.3361L84.9737 11.8876H84.6404L84.2858 11.3816H83.9817V11.8876H83.7035V10.4257H84.3546C84.6955 10.4257 84.9186 10.5995 84.9186 10.892C84.9202 11.1317 84.7811 11.2781 84.5808 11.3361H84.5793ZM84.3439 10.6765H83.9817V11.1389H84.3439C84.5243 11.1389 84.6328 11.0504 84.6328 10.9075C84.6328 10.7571 84.5243 10.6765 84.3439 10.6765Z" fill="#212B36"/>
</svg>
