<svg width="243" height="138" viewBox="0 0 243 138" fill="none" xmlns="http://www.w3.org/2000/svg">
<path d="M36.3478 6.36C36.3478 6.49333 36.2945 6.61333 36.1878 6.72C36.1078 6.8 36.0011 6.84 35.8678 6.84H22.7878C22.6545 6.84 22.5878 6.90667 22.5878 7.04V13.24C22.5878 13.3733 22.6545 13.44 22.7878 13.44H31.3878C31.5211 13.44 31.6278 13.4933 31.7078 13.6C31.8145 13.68 31.8678 13.7867 31.8678 13.92V17.8C31.8678 17.9333 31.8145 18.0533 31.7078 18.16C31.6278 18.24 31.5211 18.28 31.3878 18.28H22.7878C22.6545 18.28 22.5878 18.3467 22.5878 18.48V29.52C22.5878 29.6533 22.5345 29.7733 22.4278 29.88C22.3478 29.96 22.2411 30 22.1078 30H17.4278C17.2945 30 17.1745 29.96 17.0678 29.88C16.9878 29.7733 16.9478 29.6533 16.9478 29.52V2.48C16.9478 2.34667 16.9878 2.24 17.0678 2.16C17.1745 2.05333 17.2945 2 17.4278 2H35.8678C36.0011 2 36.1078 2.05333 36.1878 2.16C36.2945 2.24 36.3478 2.34667 36.3478 2.48V6.36ZM48.0388 9.16C48.9988 9.16 49.7588 9.34667 50.3188 9.72C50.5321 9.82667 50.6121 10.0267 50.5588 10.32L49.7188 14.88C49.6921 15.2 49.5054 15.2933 49.1588 15.16C48.7588 15.0267 48.2921 14.96 47.7588 14.96C47.5454 14.96 47.2521 14.9867 46.8788 15.04C45.9188 15.12 45.1054 15.48 44.4388 16.12C43.7721 16.7333 43.4388 17.56 43.4388 18.6V29.52C43.4388 29.6533 43.3854 29.7733 43.2788 29.88C43.1988 29.96 43.0921 30 42.9588 30H38.2788C38.1454 30 38.0254 29.96 37.9188 29.88C37.8388 29.7733 37.7988 29.6533 37.7988 29.52V9.92C37.7988 9.78667 37.8388 9.68 37.9188 9.6C38.0254 9.49333 38.1454 9.44 38.2788 9.44H42.9588C43.0921 9.44 43.1988 9.49333 43.2788 9.6C43.3854 9.68 43.4388 9.78667 43.4388 9.92V11.44C43.4388 11.52 43.4654 11.5733 43.5188 11.6C43.5721 11.6267 43.6121 11.6133 43.6388 11.56C44.7321 9.96 46.1988 9.16 48.0388 9.16ZM70.8034 17.6C70.9634 18.6133 71.0168 19.7467 70.9634 21C70.9368 21.32 70.7634 21.48 70.4434 21.48H58.0834C57.9234 21.48 57.8701 21.5467 57.9234 21.68C58.0034 22.2133 58.1501 22.7467 58.3634 23.28C59.0568 24.7733 60.4701 25.52 62.6034 25.52C64.3101 25.4933 65.6568 24.8 66.6434 23.44C66.7501 23.28 66.8701 23.2 67.0034 23.2C67.0834 23.2 67.1768 23.2533 67.2834 23.36L70.1634 26.2C70.2968 26.3333 70.3634 26.4533 70.3634 26.56C70.3634 26.6133 70.3101 26.72 70.2034 26.88C69.3234 27.9733 68.1901 28.8267 66.8034 29.44C65.4168 30.0267 63.8968 30.32 62.2434 30.32C59.9501 30.32 58.0034 29.8 56.4034 28.76C54.8301 27.72 53.6968 26.2667 53.0034 24.4C52.4434 23.0667 52.1634 21.32 52.1634 19.16C52.1634 17.6933 52.3634 16.4 52.7634 15.28C53.3768 13.3867 54.4434 11.88 55.9634 10.76C57.5101 9.64 59.3368 9.08 61.4434 9.08C64.1101 9.08 66.2434 9.85333 67.8434 11.4C69.4701 12.9467 70.4568 15.0133 70.8034 17.6ZM61.4834 13.96C59.8034 13.96 58.6968 14.7467 58.1634 16.32C58.0568 16.6667 57.9634 17.0933 57.8834 17.6C57.8834 17.7333 57.9501 17.8 58.0834 17.8H65.0034C65.1634 17.8 65.2168 17.7333 65.1634 17.6C65.0301 16.8267 64.9634 16.4533 64.9634 16.48C64.7234 15.68 64.2968 15.0667 63.6834 14.64C63.0968 14.1867 62.3634 13.96 61.4834 13.96ZM92.6394 17.6C92.7994 18.6133 92.8527 19.7467 92.7994 21C92.7727 21.32 92.5994 21.48 92.2794 21.48H79.9194C79.7594 21.48 79.706 21.5467 79.7594 21.68C79.8394 22.2133 79.986 22.7467 80.1994 23.28C80.8927 24.7733 82.306 25.52 84.4394 25.52C86.146 25.4933 87.4927 24.8 88.4794 23.44C88.586 23.28 88.706 23.2 88.8394 23.2C88.9194 23.2 89.0127 23.2533 89.1194 23.36L91.9994 26.2C92.1327 26.3333 92.1994 26.4533 92.1994 26.56C92.1994 26.6133 92.146 26.72 92.0394 26.88C91.1594 27.9733 90.026 28.8267 88.6394 29.44C87.2527 30.0267 85.7327 30.32 84.0794 30.32C81.786 30.32 79.8394 29.8 78.2394 28.76C76.666 27.72 75.5327 26.2667 74.8394 24.4C74.2794 23.0667 73.9994 21.32 73.9994 19.16C73.9994 17.6933 74.1994 16.4 74.5994 15.28C75.2127 13.3867 76.2794 11.88 77.7994 10.76C79.346 9.64 81.1727 9.08 83.2794 9.08C85.946 9.08 88.0794 9.85333 89.6794 11.4C91.306 12.9467 92.2927 15.0133 92.6394 17.6ZM83.3194 13.96C81.6394 13.96 80.5327 14.7467 79.9994 16.32C79.8927 16.6667 79.7994 17.0933 79.7194 17.6C79.7194 17.7333 79.786 17.8 79.9194 17.8H86.8394C86.9994 17.8 87.0527 17.7333 86.9994 17.6C86.866 16.8267 86.7994 16.4533 86.7994 16.48C86.5594 15.68 86.1327 15.0667 85.5194 14.64C84.9327 14.1867 84.1994 13.96 83.3194 13.96ZM174.043 56.36C174.043 56.4933 173.99 56.6133 173.883 56.72C173.803 56.8 173.696 56.84 173.563 56.84H160.483C160.35 56.84 160.283 56.9067 160.283 57.04V63.24C160.283 63.3733 160.35 63.44 160.483 63.44H169.083C169.216 63.44 169.323 63.4933 169.403 63.6C169.51 63.68 169.563 63.7867 169.563 63.92V67.8C169.563 67.9333 169.51 68.0533 169.403 68.16C169.323 68.24 169.216 68.28 169.083 68.28H160.483C160.35 68.28 160.283 68.3467 160.283 68.48V79.52C160.283 79.6533 160.23 79.7733 160.123 79.88C160.043 79.96 159.936 80 159.803 80H155.123C154.99 80 154.87 79.96 154.763 79.88C154.683 79.7733 154.643 79.6533 154.643 79.52V52.48C154.643 52.3467 154.683 52.24 154.763 52.16C154.87 52.0533 154.99 52 155.123 52H173.563C173.696 52 173.803 52.0533 173.883 52.16C173.99 52.24 174.043 52.3467 174.043 52.48V56.36ZM185.734 59.16C186.694 59.16 187.454 59.3467 188.014 59.72C188.227 59.8267 188.307 60.0267 188.254 60.32L187.414 64.88C187.387 65.2 187.201 65.2933 186.854 65.16C186.454 65.0267 185.987 64.96 185.454 64.96C185.241 64.96 184.947 64.9867 184.574 65.04C183.614 65.12 182.801 65.48 182.134 66.12C181.467 66.7333 181.134 67.56 181.134 68.6V79.52C181.134 79.6533 181.081 79.7733 180.974 79.88C180.894 79.96 180.787 80 180.654 80H175.974C175.841 80 175.721 79.96 175.614 79.88C175.534 79.7733 175.494 79.6533 175.494 79.52V59.92C175.494 59.7867 175.534 59.68 175.614 59.6C175.721 59.4933 175.841 59.44 175.974 59.44H180.654C180.787 59.44 180.894 59.4933 180.974 59.6C181.081 59.68 181.134 59.7867 181.134 59.92V61.44C181.134 61.52 181.161 61.5733 181.214 61.6C181.267 61.6267 181.307 61.6133 181.334 61.56C182.427 59.96 183.894 59.16 185.734 59.16ZM199.379 80.32C197.139 80.32 195.219 79.7333 193.619 78.56C192.019 77.3867 190.925 75.7867 190.339 73.76C189.965 72.5067 189.779 71.1467 189.779 69.68C189.779 68.1067 189.965 66.6933 190.339 65.44C190.952 63.4667 192.059 61.92 193.659 60.8C195.259 59.68 197.179 59.12 199.419 59.12C201.605 59.12 203.472 59.68 205.019 60.8C206.565 61.8933 207.659 63.4267 208.299 65.4C208.725 66.7333 208.939 68.1333 208.939 69.6C208.939 71.04 208.752 72.3867 208.379 73.64C207.792 75.72 206.699 77.36 205.099 78.56C203.525 79.7333 201.619 80.32 199.379 80.32ZM199.379 75.48C200.259 75.48 201.005 75.2133 201.619 74.68C202.232 74.1467 202.672 73.4133 202.939 72.48C203.152 71.6267 203.259 70.6933 203.259 69.68C203.259 68.56 203.152 67.6133 202.939 66.84C202.645 65.9333 202.192 65.2267 201.579 64.72C200.965 64.2133 200.219 63.96 199.339 63.96C198.432 63.96 197.672 64.2133 197.059 64.72C196.472 65.2267 196.045 65.9333 195.779 66.84C195.565 67.48 195.459 68.4267 195.459 69.68C195.459 70.88 195.552 71.8133 195.739 72.48C196.005 73.4133 196.445 74.1467 197.059 74.68C197.699 75.2133 198.472 75.48 199.379 75.48ZM235.364 59.12C237.444 59.12 239.071 59.7467 240.244 61C241.418 62.2533 242.004 64.0133 242.004 66.28V79.52C242.004 79.6533 241.951 79.7733 241.844 79.88C241.764 79.96 241.658 80 241.524 80H236.844C236.711 80 236.591 79.96 236.484 79.88C236.404 79.7733 236.364 79.6533 236.364 79.52V67.52C236.364 66.4267 236.084 65.56 235.524 64.92C234.964 64.28 234.218 63.96 233.284 63.96C232.351 63.96 231.591 64.28 231.004 64.92C230.418 65.56 230.124 66.4133 230.124 67.48V79.52C230.124 79.6533 230.071 79.7733 229.964 79.88C229.884 79.96 229.778 80 229.644 80H225.004C224.871 80 224.751 79.96 224.644 79.88C224.564 79.7733 224.524 79.6533 224.524 79.52V67.52C224.524 66.4533 224.231 65.6 223.644 64.96C223.058 64.2933 222.298 63.96 221.364 63.96C220.511 63.96 219.791 64.2133 219.204 64.72C218.644 65.2267 218.311 65.9333 218.204 66.84V79.52C218.204 79.6533 218.151 79.7733 218.044 79.88C217.964 79.96 217.858 80 217.724 80H213.044C212.911 80 212.791 79.96 212.684 79.88C212.604 79.7733 212.564 79.6533 212.564 79.52V59.92C212.564 59.7867 212.604 59.68 212.684 59.6C212.791 59.4933 212.911 59.44 213.044 59.44H217.724C217.858 59.44 217.964 59.4933 218.044 59.6C218.151 59.68 218.204 59.7867 218.204 59.92V61.48C218.204 61.56 218.231 61.6133 218.284 61.64C218.338 61.6667 218.391 61.64 218.444 61.56C219.538 59.9333 221.231 59.12 223.524 59.12C224.858 59.12 226.018 59.4 227.004 59.96C228.018 60.52 228.791 61.32 229.324 62.36C229.404 62.52 229.498 62.52 229.604 62.36C230.191 61.2667 230.978 60.4533 231.964 59.92C232.978 59.3867 234.111 59.12 235.364 59.12ZM35.6819 102C35.8152 102 35.9219 102.053 36.0019 102.16C36.1085 102.24 36.1619 102.347 36.1619 102.48V106.4C36.1619 106.533 36.1085 106.653 36.0019 106.76C35.9219 106.84 35.8152 106.88 35.6819 106.88H28.5219C28.3885 106.88 28.3219 106.947 28.3219 107.08V129.52C28.3219 129.653 28.2685 129.773 28.1619 129.88C28.0819 129.96 27.9752 130 27.8419 130H23.1619C23.0285 130 22.9085 129.96 22.8019 129.88C22.7219 129.773 22.6819 129.653 22.6819 129.52V107.08C22.6819 106.947 22.6152 106.88 22.4819 106.88H15.5219C15.3885 106.88 15.2685 106.84 15.1619 106.76C15.0819 106.653 15.0419 106.533 15.0419 106.4V102.48C15.0419 102.347 15.0819 102.24 15.1619 102.16C15.2685 102.053 15.3885 102 15.5219 102H35.6819ZM50.1203 109.12C52.2536 109.12 53.9736 109.773 55.2803 111.08C56.587 112.387 57.2403 114.16 57.2403 116.4V129.52C57.2403 129.653 57.187 129.773 57.0803 129.88C57.0003 129.96 56.8936 130 56.7603 130H52.0803C51.947 130 51.827 129.96 51.7203 129.88C51.6403 129.773 51.6003 129.653 51.6003 129.52V117.56C51.6003 116.493 51.2936 115.627 50.6803 114.96C50.0936 114.293 49.307 113.96 48.3203 113.96C47.3336 113.96 46.5336 114.293 45.9203 114.96C45.3336 115.627 45.0403 116.493 45.0403 117.56V129.52C45.0403 129.653 44.987 129.773 44.8803 129.88C44.8003 129.96 44.6936 130 44.5603 130H39.8803C39.747 130 39.627 129.96 39.5203 129.88C39.4403 129.773 39.4003 129.653 39.4003 129.52V102.48C39.4003 102.347 39.4403 102.24 39.5203 102.16C39.627 102.053 39.747 102 39.8803 102H44.5603C44.6936 102 44.8003 102.053 44.8803 102.16C44.987 102.24 45.0403 102.347 45.0403 102.48V111.32C45.0403 111.4 45.067 111.453 45.1203 111.48C45.1736 111.507 45.2136 111.493 45.2403 111.44C46.3336 109.893 47.9603 109.12 50.1203 109.12ZM79.3581 117.6C79.5181 118.613 79.5715 119.747 79.5181 121C79.4915 121.32 79.3181 121.48 78.9981 121.48H66.6381C66.4781 121.48 66.4248 121.547 66.4781 121.68C66.5581 122.213 66.7048 122.747 66.9181 123.28C67.6115 124.773 69.0248 125.52 71.1581 125.52C72.8648 125.493 74.2115 124.8 75.1981 123.44C75.3048 123.28 75.4248 123.2 75.5581 123.2C75.6381 123.2 75.7315 123.253 75.8381 123.36L78.7181 126.2C78.8515 126.333 78.9181 126.453 78.9181 126.56C78.9181 126.613 78.8648 126.72 78.7581 126.88C77.8781 127.973 76.7448 128.827 75.3581 129.44C73.9715 130.027 72.4515 130.32 70.7981 130.32C68.5048 130.32 66.5581 129.8 64.9581 128.76C63.3848 127.72 62.2515 126.267 61.5581 124.4C60.9981 123.067 60.7181 121.32 60.7181 119.16C60.7181 117.693 60.9181 116.4 61.3181 115.28C61.9315 113.387 62.9981 111.88 64.5181 110.76C66.0648 109.64 67.8915 109.08 69.9981 109.08C72.6648 109.08 74.7981 109.853 76.3981 111.4C78.0248 112.947 79.0115 115.013 79.3581 117.6ZM70.0381 113.96C68.3581 113.96 67.2515 114.747 66.7181 116.32C66.6115 116.667 66.5181 117.093 66.4381 117.6C66.4381 117.733 66.5048 117.8 66.6381 117.8H73.5581C73.7181 117.8 73.7715 117.733 73.7181 117.6C73.5848 116.827 73.5181 116.453 73.5181 116.48C73.2781 115.68 72.8515 115.067 72.2381 114.64C71.6515 114.187 70.9181 113.96 70.0381 113.96ZM110.802 106.36C110.802 106.493 110.749 106.613 110.642 106.72C110.562 106.8 110.455 106.84 110.322 106.84H97.2019C97.0685 106.84 97.0019 106.907 97.0019 107.04V113.24C97.0019 113.373 97.0685 113.44 97.2019 113.44H105.802C105.935 113.44 106.042 113.493 106.122 113.6C106.229 113.68 106.282 113.787 106.282 113.92V117.8C106.282 117.933 106.229 118.053 106.122 118.16C106.042 118.24 105.935 118.28 105.802 118.28H97.2019C97.0685 118.28 97.0019 118.347 97.0019 118.48V124.96C97.0019 125.093 97.0685 125.16 97.2019 125.16H110.322C110.455 125.16 110.562 125.213 110.642 125.32C110.749 125.4 110.802 125.507 110.802 125.64V129.52C110.802 129.653 110.749 129.773 110.642 129.88C110.562 129.96 110.455 130 110.322 130H91.8419C91.7085 130 91.5885 129.96 91.4819 129.88C91.4019 129.773 91.3619 129.653 91.3619 129.52V102.48C91.3619 102.347 91.4019 102.24 91.4819 102.16C91.5885 102.053 91.7085 102 91.8419 102H110.322C110.455 102 110.562 102.053 110.642 102.16C110.749 102.24 110.802 102.347 110.802 102.48V106.36ZM113.561 130C113.375 130 113.241 129.947 113.161 129.84C113.108 129.707 113.135 129.56 113.241 129.4L119.681 119.84C119.735 119.76 119.735 119.68 119.681 119.6L113.241 110.04C113.188 109.933 113.161 109.84 113.161 109.76C113.161 109.547 113.295 109.44 113.561 109.44H118.561C118.801 109.44 118.988 109.547 119.121 109.76L122.721 115.24C122.828 115.4 122.921 115.4 123.001 115.24L126.601 109.76C126.735 109.547 126.921 109.44 127.161 109.44H132.521C132.708 109.44 132.828 109.507 132.881 109.64C132.935 109.747 132.908 109.88 132.801 110.04L126.401 119.6C126.375 119.68 126.375 119.76 126.401 119.84L132.801 129.4C132.855 129.48 132.881 129.573 132.881 129.68C132.881 129.893 132.761 130 132.521 130H127.481C127.241 130 127.055 129.893 126.921 129.68L123.321 124.2C123.241 124.04 123.161 124.04 123.081 124.2L119.481 129.68C119.348 129.893 119.161 130 118.921 130H113.561ZM154.245 114.96C154.725 116.32 154.965 117.92 154.965 119.76C154.965 121.6 154.711 123.267 154.205 124.76C153.591 126.467 152.618 127.827 151.285 128.84C149.978 129.827 148.351 130.32 146.405 130.32C144.485 130.32 142.991 129.653 141.925 128.32C141.871 128.24 141.818 128.213 141.765 128.24C141.711 128.267 141.685 128.32 141.685 128.4V136.96C141.685 137.093 141.631 137.2 141.525 137.28C141.445 137.387 141.338 137.44 141.205 137.44H136.525C136.391 137.44 136.271 137.387 136.165 137.28C136.085 137.2 136.045 137.093 136.045 136.96V109.92C136.045 109.787 136.085 109.68 136.165 109.6C136.271 109.493 136.391 109.44 136.525 109.44H141.205C141.338 109.44 141.445 109.493 141.525 109.6C141.631 109.68 141.685 109.787 141.685 109.92V111.24C141.685 111.32 141.711 111.373 141.765 111.4C141.818 111.4 141.871 111.373 141.925 111.32C143.045 109.853 144.591 109.12 146.565 109.12C148.405 109.12 149.991 109.64 151.325 110.68C152.685 111.693 153.658 113.12 154.245 114.96ZM148.125 123.92C148.791 122.88 149.125 121.467 149.125 119.68C149.125 118 148.845 116.667 148.285 115.68C147.671 114.533 146.685 113.96 145.325 113.96C144.098 113.96 143.178 114.533 142.565 115.68C142.005 116.64 141.725 117.987 141.725 119.72C141.725 121.507 142.018 122.893 142.605 123.88C143.218 124.947 144.125 125.48 145.325 125.48C146.525 125.48 147.458 124.96 148.125 123.92ZM176.702 117.6C176.862 118.613 176.915 119.747 176.862 121C176.835 121.32 176.662 121.48 176.342 121.48H163.982C163.822 121.48 163.769 121.547 163.822 121.68C163.902 122.213 164.049 122.747 164.262 123.28C164.955 124.773 166.369 125.52 168.502 125.52C170.209 125.493 171.555 124.8 172.542 123.44C172.649 123.28 172.769 123.2 172.902 123.2C172.982 123.2 173.075 123.253 173.182 123.36L176.062 126.2C176.195 126.333 176.262 126.453 176.262 126.56C176.262 126.613 176.209 126.72 176.102 126.88C175.222 127.973 174.089 128.827 172.702 129.44C171.315 130.027 169.795 130.32 168.142 130.32C165.849 130.32 163.902 129.8 162.302 128.76C160.729 127.72 159.595 126.267 158.902 124.4C158.342 123.067 158.062 121.32 158.062 119.16C158.062 117.693 158.262 116.4 158.662 115.28C159.275 113.387 160.342 111.88 161.862 110.76C163.409 109.64 165.235 109.08 167.342 109.08C170.009 109.08 172.142 109.853 173.742 111.4C175.369 112.947 176.355 115.013 176.702 117.6ZM167.382 113.96C165.702 113.96 164.595 114.747 164.062 116.32C163.955 116.667 163.862 117.093 163.782 117.6C163.782 117.733 163.849 117.8 163.982 117.8H170.902C171.062 117.8 171.115 117.733 171.062 117.6C170.929 116.827 170.862 116.453 170.862 116.48C170.622 115.68 170.195 115.067 169.582 114.64C168.995 114.187 168.262 113.96 167.382 113.96ZM190.578 109.16C191.538 109.16 192.298 109.347 192.858 109.72C193.071 109.827 193.151 110.027 193.098 110.32L192.258 114.88C192.231 115.2 192.044 115.293 191.698 115.16C191.298 115.027 190.831 114.96 190.298 114.96C190.084 114.96 189.791 114.987 189.418 115.04C188.458 115.12 187.644 115.48 186.978 116.12C186.311 116.733 185.978 117.56 185.978 118.6V129.52C185.978 129.653 185.924 129.773 185.818 129.88C185.738 129.96 185.631 130 185.498 130H180.818C180.684 130 180.564 129.96 180.458 129.88C180.378 129.773 180.338 129.653 180.338 129.52V109.92C180.338 109.787 180.378 109.68 180.458 109.6C180.564 109.493 180.684 109.44 180.818 109.44H185.498C185.631 109.44 185.738 109.493 185.818 109.6C185.924 109.68 185.978 109.787 185.978 109.92V111.44C185.978 111.52 186.004 111.573 186.058 111.6C186.111 111.627 186.151 111.613 186.178 111.56C187.271 109.96 188.738 109.16 190.578 109.16ZM207.685 113.48C207.685 113.613 207.631 113.733 207.525 113.84C207.445 113.92 207.338 113.96 207.205 113.96H203.365C203.231 113.96 203.165 114.027 203.165 114.16V122.64C203.165 123.52 203.338 124.173 203.685 124.6C204.058 125.027 204.645 125.24 205.445 125.24H206.765C206.898 125.24 207.005 125.293 207.085 125.4C207.191 125.48 207.245 125.587 207.245 125.72V129.52C207.245 129.813 207.085 129.987 206.765 130.04C205.645 130.093 204.845 130.12 204.365 130.12C202.151 130.12 200.498 129.76 199.405 129.04C198.311 128.293 197.751 126.907 197.725 124.88V114.16C197.725 114.027 197.658 113.96 197.525 113.96H195.245C195.111 113.96 194.991 113.92 194.885 113.84C194.805 113.733 194.765 113.613 194.765 113.48V109.92C194.765 109.787 194.805 109.68 194.885 109.6C194.991 109.493 195.111 109.44 195.245 109.44H197.525C197.658 109.44 197.725 109.373 197.725 109.24V104.48C197.725 104.347 197.765 104.24 197.845 104.16C197.951 104.053 198.071 104 198.205 104H202.685C202.818 104 202.925 104.053 203.005 104.16C203.111 104.24 203.165 104.347 203.165 104.48V109.24C203.165 109.373 203.231 109.44 203.365 109.44H207.205C207.338 109.44 207.445 109.493 207.525 109.6C207.631 109.68 207.685 109.787 207.685 109.92V113.48ZM219.28 130.28C217.493 130.28 215.933 130.027 214.6 129.52C213.267 129.013 212.227 128.307 211.48 127.4C210.76 126.493 210.4 125.467 210.4 124.32V123.92C210.4 123.787 210.44 123.68 210.52 123.6C210.627 123.493 210.747 123.44 210.88 123.44H215.32C215.453 123.44 215.56 123.493 215.64 123.6C215.747 123.68 215.8 123.787 215.8 123.92V123.96C215.8 124.547 216.12 125.053 216.76 125.48C217.427 125.88 218.253 126.08 219.24 126.08C220.147 126.08 220.88 125.907 221.44 125.56C222 125.187 222.28 124.733 222.28 124.2C222.28 123.72 222.04 123.36 221.56 123.12C221.08 122.88 220.293 122.627 219.2 122.36C217.947 122.04 216.96 121.733 216.24 121.44C214.533 120.853 213.173 120.133 212.16 119.28C211.147 118.427 210.64 117.2 210.64 115.6C210.64 113.627 211.4 112.067 212.92 110.92C214.467 109.747 216.507 109.16 219.04 109.16C220.747 109.16 222.24 109.44 223.52 110C224.8 110.533 225.787 111.293 226.48 112.28C227.2 113.267 227.56 114.387 227.56 115.64C227.56 115.773 227.507 115.893 227.4 116C227.32 116.08 227.213 116.12 227.08 116.12H222.8C222.667 116.12 222.547 116.08 222.44 116C222.36 115.893 222.32 115.773 222.32 115.64C222.32 115.053 222.013 114.56 221.4 114.16C220.813 113.76 220.027 113.56 219.04 113.56C218.16 113.56 217.44 113.72 216.88 114.04C216.32 114.36 216.04 114.8 216.04 115.36C216.04 115.893 216.307 116.293 216.84 116.56C217.4 116.827 218.32 117.107 219.6 117.4C219.893 117.48 220.227 117.573 220.6 117.68C220.973 117.76 221.373 117.867 221.8 118C223.693 118.56 225.187 119.28 226.28 120.16C227.373 121.04 227.92 122.32 227.92 124C227.92 125.973 227.133 127.52 225.56 128.64C224.013 129.733 221.92 130.28 219.28 130.28Z" fill="#212B36"/>
<path d="M114.603 30.44C112.523 30.44 110.683 30.0133 109.083 29.16C107.51 28.3067 106.283 27.12 105.403 25.6C104.523 24.0533 104.083 22.28 104.083 20.28V11.72C104.083 9.74667 104.523 8 105.403 6.48C106.283 4.96 107.51 3.78666 109.083 2.96C110.683 2.10667 112.523 1.68 114.603 1.68C116.71 1.68 118.55 2.10667 120.123 2.96C121.723 3.78666 122.963 4.96 123.843 6.48C124.723 8 125.163 9.74667 125.163 11.72V20.28C125.163 22.28 124.723 24.0533 123.843 25.6C122.963 27.1467 121.723 28.3467 120.123 29.2C118.55 30.0267 116.71 30.44 114.603 30.44ZM114.603 25.6C116.07 25.6 117.256 25.1333 118.163 24.2C119.07 23.2667 119.523 22.0267 119.523 20.48V11.68C119.523 10.1333 119.07 8.89333 118.163 7.96C117.283 7 116.096 6.52 114.603 6.52C113.136 6.52 111.95 7 111.043 7.96C110.163 8.89333 109.723 10.1333 109.723 11.68V20.48C109.723 22.0267 110.163 23.2667 111.043 24.2C111.95 25.1333 113.136 25.6 114.603 25.6ZM139.847 9.12C141.98 9.12 143.7 9.77333 145.007 11.08C146.314 12.3867 146.967 14.16 146.967 16.4V29.52C146.967 29.6533 146.914 29.7733 146.807 29.88C146.727 29.96 146.62 30 146.487 30H141.807C141.674 30 141.554 29.96 141.447 29.88C141.367 29.7733 141.327 29.6533 141.327 29.52V17.56C141.327 16.4933 141.02 15.6267 140.407 14.96C139.82 14.2933 139.034 13.96 138.047 13.96C137.06 13.96 136.26 14.2933 135.647 14.96C135.06 15.6267 134.767 16.4933 134.767 17.56V29.52C134.767 29.6533 134.714 29.7733 134.607 29.88C134.527 29.96 134.42 30 134.287 30H129.607C129.474 30 129.354 29.96 129.247 29.88C129.167 29.7733 129.127 29.6533 129.127 29.52V9.92C129.127 9.78667 129.167 9.68 129.247 9.6C129.354 9.49333 129.474 9.44 129.607 9.44H134.287C134.42 9.44 134.527 9.49333 134.607 9.6C134.714 9.68 134.767 9.78667 134.767 9.92V11.32C134.767 11.4 134.794 11.4533 134.847 11.48C134.9 11.5067 134.94 11.4933 134.967 11.44C136.06 9.89333 137.687 9.12 139.847 9.12ZM151.482 30C151.349 30 151.229 29.96 151.122 29.88C151.042 29.7733 151.002 29.6533 151.002 29.52V2.48C151.002 2.34667 151.042 2.24 151.122 2.16C151.229 2.05333 151.349 2 151.482 2H156.162C156.295 2 156.402 2.05333 156.482 2.16C156.589 2.24 156.642 2.34667 156.642 2.48V29.52C156.642 29.6533 156.589 29.7733 156.482 29.88C156.402 29.96 156.295 30 156.162 30H151.482ZM163.808 7.12C162.901 7.12 162.141 6.82667 161.528 6.24C160.941 5.62666 160.648 4.86667 160.648 3.96C160.648 3.02667 160.941 2.26667 161.528 1.68C162.114 1.09333 162.874 0.799999 163.808 0.799999C164.741 0.799999 165.501 1.09333 166.088 1.68C166.674 2.26667 166.968 3.02667 166.968 3.96C166.968 4.86667 166.661 5.62666 166.048 6.24C165.461 6.82667 164.714 7.12 163.808 7.12ZM161.408 30C161.274 30 161.154 29.96 161.048 29.88C160.968 29.7733 160.928 29.6533 160.928 29.52V9.88C160.928 9.74667 160.968 9.64 161.048 9.56C161.154 9.45333 161.274 9.4 161.408 9.4H166.088C166.221 9.4 166.328 9.45333 166.408 9.56C166.514 9.64 166.568 9.74667 166.568 9.88V29.52C166.568 29.6533 166.514 29.7733 166.408 29.88C166.328 29.96 166.221 30 166.088 30H161.408ZM181.683 9.12C183.816 9.12 185.536 9.77333 186.843 11.08C188.149 12.3867 188.803 14.16 188.803 16.4V29.52C188.803 29.6533 188.749 29.7733 188.643 29.88C188.563 29.96 188.456 30 188.323 30H183.643C183.509 30 183.389 29.96 183.283 29.88C183.203 29.7733 183.163 29.6533 183.163 29.52V17.56C183.163 16.4933 182.856 15.6267 182.243 14.96C181.656 14.2933 180.869 13.96 179.883 13.96C178.896 13.96 178.096 14.2933 177.483 14.96C176.896 15.6267 176.603 16.4933 176.603 17.56V29.52C176.603 29.6533 176.549 29.7733 176.443 29.88C176.363 29.96 176.256 30 176.123 30H171.443C171.309 30 171.189 29.96 171.083 29.88C171.003 29.7733 170.963 29.6533 170.963 29.52V9.92C170.963 9.78667 171.003 9.68 171.083 9.6C171.189 9.49333 171.309 9.44 171.443 9.44H176.123C176.256 9.44 176.363 9.49333 176.443 9.6C176.549 9.68 176.603 9.78667 176.603 9.92V11.32C176.603 11.4 176.629 11.4533 176.683 11.48C176.736 11.5067 176.776 11.4933 176.803 11.44C177.896 9.89333 179.523 9.12 181.683 9.12ZM210.921 17.6C211.081 18.6133 211.134 19.7467 211.081 21C211.054 21.32 210.881 21.48 210.561 21.48H198.201C198.041 21.48 197.987 21.5467 198.041 21.68C198.121 22.2133 198.267 22.7467 198.481 23.28C199.174 24.7733 200.587 25.52 202.721 25.52C204.427 25.4933 205.774 24.8 206.761 23.44C206.867 23.28 206.987 23.2 207.121 23.2C207.201 23.2 207.294 23.2533 207.401 23.36L210.281 26.2C210.414 26.3333 210.481 26.4533 210.481 26.56C210.481 26.6133 210.427 26.72 210.321 26.88C209.441 27.9733 208.307 28.8267 206.921 29.44C205.534 30.0267 204.014 30.32 202.361 30.32C200.067 30.32 198.121 29.8 196.521 28.76C194.947 27.72 193.814 26.2667 193.121 24.4C192.561 23.0667 192.281 21.32 192.281 19.16C192.281 17.6933 192.481 16.4 192.881 15.28C193.494 13.3867 194.561 11.88 196.081 10.76C197.627 9.64 199.454 9.08 201.561 9.08C204.227 9.08 206.361 9.85333 207.961 11.4C209.587 12.9467 210.574 15.0133 210.921 17.6ZM201.601 13.96C199.921 13.96 198.814 14.7467 198.281 16.32C198.174 16.6667 198.081 17.0933 198.001 17.6C198.001 17.7333 198.067 17.8 198.201 17.8H205.121C205.281 17.8 205.334 17.7333 205.281 17.6C205.147 16.8267 205.081 16.4533 205.081 16.48C204.841 15.68 204.414 15.0667 203.801 14.64C203.214 14.1867 202.481 13.96 201.601 13.96Z" fill="#919EAB"/>
<path d="M11.3972 80.32C9.31719 80.32 7.49052 79.92 5.91719 79.12C4.34385 78.2933 3.13052 77.1467 2.27719 75.68C1.42385 74.2133 0.997188 72.52 0.997188 70.6V61.36C0.997188 59.44 1.42385 57.7467 2.27719 56.28C3.13052 54.8133 4.34385 53.68 5.91719 52.88C7.49052 52.08 9.31719 51.68 11.3972 51.68C13.4505 51.68 15.2505 52.0667 16.7972 52.84C18.3705 53.5867 19.5839 54.6667 20.4372 56.08C21.3172 57.4667 21.7572 59.08 21.7572 60.92C21.7572 61.16 21.5972 61.3067 21.2772 61.36L16.5972 61.64H16.5172C16.2505 61.64 16.1172 61.4933 16.1172 61.2C16.1172 59.7867 15.6772 58.6533 14.7972 57.8C13.9439 56.9467 12.8105 56.52 11.3972 56.52C9.95719 56.52 8.79719 56.9467 7.91719 57.8C7.06385 58.6533 6.63719 59.7867 6.63719 61.2V70.84C6.63719 72.2267 7.06385 73.3467 7.91719 74.2C8.79719 75.0533 9.95719 75.48 11.3972 75.48C12.8105 75.48 13.9439 75.0533 14.7972 74.2C15.6772 73.3467 16.1172 72.2267 16.1172 70.84C16.1172 70.5467 16.2772 70.4 16.5972 70.4L21.2772 70.6C21.4105 70.6 21.5172 70.64 21.5972 70.72C21.7039 70.8 21.7572 70.8933 21.7572 71C21.7572 72.84 21.3172 74.4667 20.4372 75.88C19.5839 77.2933 18.3705 78.3867 16.7972 79.16C15.2505 79.9333 13.4505 80.32 11.3972 80.32ZM34.5741 80.32C32.3341 80.32 30.4141 79.7333 28.8141 78.56C27.2141 77.3867 26.1207 75.7867 25.5341 73.76C25.1607 72.5067 24.9741 71.1467 24.9741 69.68C24.9741 68.1067 25.1607 66.6933 25.5341 65.44C26.1474 63.4667 27.2541 61.92 28.8541 60.8C30.4541 59.68 32.3741 59.12 34.6141 59.12C36.8007 59.12 38.6674 59.68 40.2141 60.8C41.7607 61.8933 42.8541 63.4267 43.4941 65.4C43.9207 66.7333 44.1341 68.1333 44.1341 69.6C44.1341 71.04 43.9474 72.3867 43.5741 73.64C42.9874 75.72 41.8941 77.36 40.2941 78.56C38.7207 79.7333 36.8141 80.32 34.5741 80.32ZM34.5741 75.48C35.4541 75.48 36.2007 75.2133 36.8141 74.68C37.4274 74.1467 37.8674 73.4133 38.1341 72.48C38.3474 71.6267 38.4541 70.6933 38.4541 69.68C38.4541 68.56 38.3474 67.6133 38.1341 66.84C37.8407 65.9333 37.3874 65.2267 36.7741 64.72C36.1607 64.2133 35.4141 63.96 34.5341 63.96C33.6274 63.96 32.8674 64.2133 32.2541 64.72C31.6674 65.2267 31.2407 65.9333 30.9741 66.84C30.7607 67.48 30.6541 68.4267 30.6541 69.68C30.6541 70.88 30.7474 71.8133 30.9341 72.48C31.2007 73.4133 31.6407 74.1467 32.2541 74.68C32.8941 75.2133 33.6674 75.48 34.5741 75.48ZM59.7597 59.92C59.7597 59.7867 59.7997 59.68 59.8797 59.6C59.9864 59.4933 60.1064 59.44 60.2397 59.44H64.9197C65.053 59.44 65.1597 59.4933 65.2397 59.6C65.3464 59.68 65.3997 59.7867 65.3997 59.92V79.52C65.3997 79.6533 65.3464 79.7733 65.2397 79.88C65.1597 79.96 65.053 80 64.9197 80H60.2397C60.1064 80 59.9864 79.96 59.8797 79.88C59.7997 79.7733 59.7597 79.6533 59.7597 79.52V78.16C59.7597 78.08 59.733 78.04 59.6797 78.04C59.6264 78.0133 59.573 78.04 59.5197 78.12C58.453 79.56 56.7997 80.28 54.5597 80.28C52.533 80.28 50.8664 79.6667 49.5597 78.44C48.253 77.2133 47.5997 75.4933 47.5997 73.28V59.92C47.5997 59.7867 47.6397 59.68 47.7197 59.6C47.8264 59.4933 47.9464 59.44 48.0797 59.44H52.7197C52.853 59.44 52.9597 59.4933 53.0397 59.6C53.1464 59.68 53.1997 59.7867 53.1997 59.92V71.88C53.1997 72.9467 53.4797 73.8133 54.0397 74.48C54.6264 75.1467 55.4264 75.48 56.4397 75.48C57.3464 75.48 58.093 75.2133 58.6797 74.68C59.2664 74.12 59.6264 73.4 59.7597 72.52V59.92ZM79.7966 59.16C80.7566 59.16 81.5166 59.3467 82.0766 59.72C82.2899 59.8267 82.3699 60.0267 82.3166 60.32L81.4766 64.88C81.4499 65.2 81.2632 65.2933 80.9166 65.16C80.5166 65.0267 80.0499 64.96 79.5166 64.96C79.3032 64.96 79.0099 64.9867 78.6366 65.04C77.6766 65.12 76.8632 65.48 76.1966 66.12C75.5299 66.7333 75.1966 67.56 75.1966 68.6V79.52C75.1966 79.6533 75.1432 79.7733 75.0366 79.88C74.9566 79.96 74.8499 80 74.7166 80H70.0366C69.9032 80 69.7832 79.96 69.6766 79.88C69.5966 79.7733 69.5566 79.6533 69.5566 79.52V59.92C69.5566 59.7867 69.5966 59.68 69.6766 59.6C69.7832 59.4933 69.9032 59.44 70.0366 59.44H74.7166C74.8499 59.44 74.9566 59.4933 75.0366 59.6C75.1432 59.68 75.1966 59.7867 75.1966 59.92V61.44C75.1966 61.52 75.2232 61.5733 75.2766 61.6C75.3299 61.6267 75.3699 61.6133 75.3966 61.56C76.4899 59.96 77.9566 59.16 79.7966 59.16ZM92.7566 80.28C90.9699 80.28 89.4099 80.0267 88.0766 79.52C86.7432 79.0133 85.7032 78.3067 84.9566 77.4C84.2366 76.4933 83.8766 75.4667 83.8766 74.32V73.92C83.8766 73.7867 83.9166 73.68 83.9966 73.6C84.1032 73.4933 84.2232 73.44 84.3566 73.44H88.7966C88.9299 73.44 89.0366 73.4933 89.1166 73.6C89.2232 73.68 89.2766 73.7867 89.2766 73.92V73.96C89.2766 74.5467 89.5966 75.0533 90.2366 75.48C90.9032 75.88 91.7299 76.08 92.7166 76.08C93.6232 76.08 94.3566 75.9067 94.9166 75.56C95.4766 75.1867 95.7566 74.7333 95.7566 74.2C95.7566 73.72 95.5166 73.36 95.0366 73.12C94.5566 72.88 93.7699 72.6267 92.6766 72.36C91.4232 72.04 90.4366 71.7333 89.7166 71.44C88.0099 70.8533 86.6499 70.1333 85.6366 69.28C84.6232 68.4267 84.1166 67.2 84.1166 65.6C84.1166 63.6267 84.8766 62.0667 86.3966 60.92C87.9432 59.7467 89.9832 59.16 92.5166 59.16C94.2232 59.16 95.7166 59.44 96.9966 60C98.2766 60.5333 99.2632 61.2933 99.9566 62.28C100.677 63.2667 101.037 64.3867 101.037 65.64C101.037 65.7733 100.983 65.8933 100.877 66C100.797 66.08 100.69 66.12 100.557 66.12H96.2766C96.1432 66.12 96.0232 66.08 95.9166 66C95.8366 65.8933 95.7966 65.7733 95.7966 65.64C95.7966 65.0533 95.4899 64.56 94.8766 64.16C94.2899 63.76 93.5032 63.56 92.5166 63.56C91.6366 63.56 90.9166 63.72 90.3566 64.04C89.7966 64.36 89.5166 64.8 89.5166 65.36C89.5166 65.8933 89.7832 66.2933 90.3166 66.56C90.8766 66.8267 91.7966 67.1067 93.0766 67.4C93.3699 67.48 93.7032 67.5733 94.0766 67.68C94.4499 67.76 94.8499 67.8667 95.2766 68C97.1699 68.56 98.6632 69.28 99.7566 70.16C100.85 71.04 101.397 72.32 101.397 74C101.397 75.9733 100.61 77.52 99.0366 78.64C97.4899 79.7333 95.3966 80.28 92.7566 80.28ZM122.835 67.6C122.995 68.6133 123.048 69.7467 122.995 71C122.968 71.32 122.795 71.48 122.475 71.48H110.115C109.955 71.48 109.901 71.5467 109.955 71.68C110.035 72.2133 110.181 72.7467 110.395 73.28C111.088 74.7733 112.501 75.52 114.635 75.52C116.341 75.4933 117.688 74.8 118.675 73.44C118.781 73.28 118.901 73.2 119.035 73.2C119.115 73.2 119.208 73.2533 119.315 73.36L122.195 76.2C122.328 76.3333 122.395 76.4533 122.395 76.56C122.395 76.6133 122.341 76.72 122.235 76.88C121.355 77.9733 120.221 78.8267 118.835 79.44C117.448 80.0267 115.928 80.32 114.275 80.32C111.981 80.32 110.035 79.8 108.435 78.76C106.861 77.72 105.728 76.2667 105.035 74.4C104.475 73.0667 104.195 71.32 104.195 69.16C104.195 67.6933 104.395 66.4 104.795 65.28C105.408 63.3867 106.475 61.88 107.995 60.76C109.541 59.64 111.368 59.08 113.475 59.08C116.141 59.08 118.275 59.8533 119.875 61.4C121.501 62.9467 122.488 65.0133 122.835 67.6ZM113.515 63.96C111.835 63.96 110.728 64.7467 110.195 66.32C110.088 66.6667 109.995 67.0933 109.915 67.6C109.915 67.7333 109.981 67.8 110.115 67.8H117.035C117.195 67.8 117.248 67.7333 117.195 67.6C117.061 66.8267 116.995 66.4533 116.995 66.48C116.755 65.68 116.328 65.0667 115.715 64.64C115.128 64.1867 114.395 63.96 113.515 63.96ZM134.397 80.28C132.611 80.28 131.051 80.0267 129.717 79.52C128.384 79.0133 127.344 78.3067 126.597 77.4C125.877 76.4933 125.517 75.4667 125.517 74.32V73.92C125.517 73.7867 125.557 73.68 125.637 73.6C125.744 73.4933 125.864 73.44 125.997 73.44H130.437C130.571 73.44 130.677 73.4933 130.757 73.6C130.864 73.68 130.917 73.7867 130.917 73.92V73.96C130.917 74.5467 131.237 75.0533 131.877 75.48C132.544 75.88 133.371 76.08 134.357 76.08C135.264 76.08 135.997 75.9067 136.557 75.56C137.117 75.1867 137.397 74.7333 137.397 74.2C137.397 73.72 137.157 73.36 136.677 73.12C136.197 72.88 135.411 72.6267 134.317 72.36C133.064 72.04 132.077 71.7333 131.357 71.44C129.651 70.8533 128.291 70.1333 127.277 69.28C126.264 68.4267 125.757 67.2 125.757 65.6C125.757 63.6267 126.517 62.0667 128.037 60.92C129.584 59.7467 131.624 59.16 134.157 59.16C135.864 59.16 137.357 59.44 138.637 60C139.917 60.5333 140.904 61.2933 141.597 62.28C142.317 63.2667 142.677 64.3867 142.677 65.64C142.677 65.7733 142.624 65.8933 142.517 66C142.437 66.08 142.331 66.12 142.197 66.12H137.917C137.784 66.12 137.664 66.08 137.557 66C137.477 65.8933 137.437 65.7733 137.437 65.64C137.437 65.0533 137.131 64.56 136.517 64.16C135.931 63.76 135.144 63.56 134.157 63.56C133.277 63.56 132.557 63.72 131.997 64.04C131.437 64.36 131.157 64.8 131.157 65.36C131.157 65.8933 131.424 66.2933 131.957 66.56C132.517 66.8267 133.437 67.1067 134.717 67.4C135.011 67.48 135.344 67.5733 135.717 67.68C136.091 67.76 136.491 67.8667 136.917 68C138.811 68.56 140.304 69.28 141.397 70.16C142.491 71.04 143.037 72.32 143.037 74C143.037 75.9733 142.251 77.52 140.677 78.64C139.131 79.7333 137.037 80.28 134.397 80.28Z" fill="#FA541C"/>
<path d="M-0.882812 84H144.197V86H-0.882812V84Z" fill="#FA541C"/>
</svg>
