<svg width="18" height="16" viewBox="0 0 18 16" fill="none" xmlns="http://www.w3.org/2000/svg">
<path d="M13.6333 15.9439C13.5 15.9445 13.3686 15.913 13.25 15.8523L8.99998 13.6273L4.74999 15.8523C4.61198 15.9248 4.45638 15.9572 4.30088 15.9458C4.14538 15.9343 3.99622 15.8795 3.87034 15.7874C3.74447 15.6954 3.64694 15.5699 3.58883 15.4252C3.53073 15.2805 3.51438 15.1225 3.54165 14.9689L4.37498 10.2773L0.941652 6.94394C0.834533 6.83704 0.758545 6.70299 0.721842 6.55618C0.685139 6.40937 0.689106 6.25533 0.733319 6.1106C0.781619 5.9625 0.870466 5.8309 0.989777 5.73073C1.10909 5.63057 1.25409 5.56586 1.40832 5.54394L6.15832 4.85227L8.24999 0.577269C8.31822 0.436377 8.42477 0.317555 8.55741 0.234414C8.69006 0.151274 8.84344 0.107178 8.99998 0.107178C9.15653 0.107178 9.30991 0.151274 9.44256 0.234414C9.5752 0.317555 9.68175 0.436377 9.74998 0.577269L11.8667 4.84394L16.6167 5.5356C16.7709 5.55752 16.9159 5.62224 17.0352 5.7224C17.1545 5.82256 17.2434 5.95416 17.2917 6.10227C17.3359 6.247 17.3398 6.40103 17.3031 6.54785C17.2664 6.69466 17.1904 6.82871 17.0833 6.9356L13.65 10.2689L14.4833 14.9606C14.5131 15.1168 14.4975 15.2783 14.4384 15.426C14.3794 15.5736 14.2793 15.7013 14.15 15.7939C13.9991 15.8997 13.8174 15.9524 13.6333 15.9439Z" fill="#FFC81A"/>
</svg>
