<svg width="14" height="12" viewBox="0 0 14 12" fill="none" xmlns="http://www.w3.org/2000/svg">
<path d="M4.325 11.173C5.38071 11.1797 6.42724 10.9766 7.40387 10.5757C8.38051 10.1747 9.26782 9.58387 10.0143 8.83735C10.7608 8.09084 11.3517 7.20353 11.7527 6.22689C12.1536 5.25026 12.3566 4.20373 12.35 3.14802C12.35 3.02302 12.35 2.90427 12.35 2.77927C12.8972 2.37833 13.3709 1.88563 13.75 1.32302C13.2347 1.54839 12.6894 1.69786 12.1312 1.76677C12.7231 1.41413 13.1671 0.859064 13.3812 0.204271C12.8297 0.535171 12.2249 0.767793 11.5937 0.891771C11.1687 0.438875 10.6063 0.138681 9.99342 0.0376371C9.38058 -0.0634065 8.75153 0.0403331 8.20359 0.332805C7.65565 0.625276 7.21937 1.09018 6.96225 1.65557C6.70514 2.22096 6.64152 2.85533 6.78125 3.46052C5.66002 3.40549 4.56294 3.11491 3.56147 2.60771C2.56 2.10052 1.67659 1.38807 0.96875 0.516771C0.611827 1.13626 0.503642 1.86822 0.6661 2.56447C0.828558 3.26072 1.24952 3.86922 1.84375 4.26677C1.40538 4.24986 0.977158 4.12996 0.59375 3.91677V3.94802C0.589855 4.59542 0.807951 5.22459 1.21169 5.73069C1.61543 6.23678 2.18042 6.58923 2.8125 6.72927C2.40477 6.83893 1.97768 6.85602 1.5625 6.77927C1.74549 7.33139 2.0948 7.81338 2.56253 8.15914C3.03026 8.5049 3.59349 8.6975 4.175 8.71052C3.18076 9.51085 1.94506 9.95138 0.66875 9.96052C0.444971 9.95404 0.221717 9.93527 0 9.90427C1.29185 10.7273 2.79325 11.1613 4.325 11.1543" fill="#212B36"/>
</svg>
