<svg width="85" height="24" viewBox="0 0 85 24" fill="none" xmlns="http://www.w3.org/2000/svg">
<path fill-rule="evenodd" clip-rule="evenodd" d="M22.4164 4.93806C22.6878 5.0917 23.1083 5.2088 23.5226 5.24586C23.7579 5.26671 24.2489 5.25333 24.4867 5.21935C25.2996 5.10303 25.9724 4.76408 26.6022 4.1531C27.1957 3.57738 27.534 3.00424 27.6369 2.39995C27.6811 2.13924 27.6658 1.77096 27.6015 1.55709C27.4704 1.12086 27.1313 0.639075 26.7578 0.359064C26.3629 0.0628402 25.8964 -0.0434505 25.251 0.0157429C24.2011 0.111996 23.2378 0.595838 22.4244 1.43484C21.9884 1.88445 21.7325 2.3266 21.6364 2.79629C21.5891 3.02637 21.5844 3.48756 21.6268 3.73C21.6808 4.04192 21.7876 4.31241 21.9331 4.51032C22.0347 4.6475 22.2665 4.85313 22.4164 4.93806ZM70.8496 22.4145C71.8692 23.3716 73.1625 23.8853 74.8255 23.9945C75.0754 24.0107 76.1188 23.9888 76.3851 23.961C78.4494 23.7507 80.1607 22.9799 81.6587 21.585C82.6288 20.6822 83.499 19.4865 84.0288 18.3284C84.6212 17.0346 84.9275 15.6739 84.9697 14.1493C85.0157 12.478 84.6228 11.0141 83.8293 9.89975C83.5003 9.43727 83.056 8.96604 82.6985 8.69915C82.1051 8.257 81.3961 7.94637 80.6259 7.79118C80.0803 7.68128 79.6153 7.645 78.9304 7.65915C77.3207 7.69184 75.9188 8.02641 74.5903 8.69452C73.4244 9.28131 72.4768 10.0253 71.4787 11.1395C71.0119 11.6604 70.7183 12.0359 70.39 12.5323C69.5766 13.761 69.1018 15.055 68.9599 16.4314C68.9057 16.9535 68.9069 17.6981 68.9625 18.221L68.9731 18.3214L68.5668 18.4949C66.5712 19.3468 64.8731 19.8092 63.1404 19.9727C62.7266 20.0113 61.8478 20.0267 61.6064 19.9999C60.9763 19.9284 60.4712 19.704 60.0629 19.3128C59.9357 19.191 59.731 18.9561 59.7527 18.9561C59.7879 18.9561 60.3358 18.8475 60.6317 18.7821C62.7935 18.3044 64.695 17.3746 66.2373 16.0422C67.5508 14.9075 68.3603 13.8348 68.717 12.7565C68.877 12.2729 68.9245 11.9466 68.9095 11.437C68.8956 10.9521 68.8131 10.5048 68.664 10.1023C68.207 8.86798 67.1809 8.16152 65.5402 7.95126C64.6757 7.84059 63.504 7.88898 62.5084 8.07685C60.0717 8.53701 57.9039 9.87736 56.0862 12.0469C55.4643 12.7894 54.9965 13.499 54.6046 14.2932C54.0301 15.4577 53.7574 16.5469 53.7264 17.8062C53.7166 18.1958 53.7388 18.8282 53.7672 18.9473C53.7737 18.9769 53.7434 19.0037 53.6083 19.0902C53.3751 19.2394 53.1412 19.3588 52.9714 19.4155C52.8329 19.4618 52.8158 19.4633 52.5563 19.4541C52.2493 19.443 52.0955 19.4093 51.9187 19.3161C51.6786 19.1882 51.5811 18.9862 51.5356 18.5209C51.478 17.9336 51.5499 17.4801 52.0399 15.3265C52.4302 13.6125 52.5729 12.7475 52.6194 11.8199C52.684 10.5267 52.4136 9.61459 51.7631 8.93232C51.3408 8.48863 50.7357 8.22972 49.9489 8.15509C49.6765 8.12935 49.1327 8.14273 48.8122 8.18314C47.4809 8.35094 46.2594 8.95008 45.1035 10.0022C44.8161 10.2637 44.3387 10.7529 44.0932 11.0378C43.9655 11.1858 43.7818 11.367 43.5789 11.5446L43.2628 11.8212L43.2511 11.4491C43.2263 10.6744 43.111 10.1249 42.8663 9.61665C42.7424 9.35456 42.5744 9.11553 42.3695 8.90993C41.8252 8.36458 41.0291 8.11056 39.9694 8.14376C38.8317 8.17954 37.6885 8.5051 36.658 9.08674C36.4512 9.20358 35.9837 9.51293 35.7803 9.66787C35.054 10.2207 34.4021 10.8968 33.9377 11.5783C33.8707 11.6766 33.8157 11.7471 33.8157 11.7353C33.8157 11.7234 33.8299 11.6349 33.8467 11.5386C33.894 11.2689 33.8891 10.6175 33.8374 10.2842C33.7423 9.67173 33.5376 9.14285 33.2026 8.64356C32.8777 8.15946 32.4851 7.87637 31.9845 7.76544C31.9085 7.74846 31.765 7.73687 31.6237 7.7361C31.4252 7.73482 31.3698 7.74099 31.2644 7.77574C31.0238 7.855 30.7402 8.02049 30.3745 8.29406C29.8922 8.6554 29.5456 8.96166 28.3843 10.0524C27.4345 10.9446 26.6428 11.6794 26.4864 11.8145C26.4304 11.8632 26.3836 11.9079 26.3825 11.9141C26.3815 11.9229 27.258 12.9284 27.3647 13.0411C27.3838 13.0617 27.4316 13.0347 27.6469 12.8821C28.168 12.5127 28.5435 12.284 28.7227 12.2258C28.9801 12.1424 29.1848 12.3097 29.2101 12.6244C29.2212 12.7621 29.1874 13.3355 29.1411 13.7985C29.084 14.3704 28.9873 15.0372 28.7992 16.1616C28.7015 16.7448 28.5958 17.4201 28.5647 17.6621C28.5335 17.904 28.5045 18.1199 28.5001 18.142C28.4854 18.2174 27.6139 18.884 27.2114 19.1277C26.9892 19.2626 26.7072 19.3957 26.5715 19.4309C26.3368 19.4919 25.991 19.4525 25.7496 19.3383C25.6477 19.2899 25.5805 19.2399 25.4782 19.1375C25.2058 18.8647 25.0791 18.4951 25.0533 17.8981C25.0429 17.6603 25.0458 17.6348 25.1528 16.9705C25.4756 14.9747 25.7697 13.3206 26.0574 11.8871C26.2125 11.1148 26.2399 10.9526 26.2541 10.7133C26.3045 9.87813 26.1347 9.14954 25.7599 8.58849C25.3484 7.97313 24.7524 7.6993 23.8925 7.7307C23.6625 7.73945 23.5816 7.74974 23.4487 7.78835C22.7615 7.98883 21.9427 8.57124 20.5353 9.86063C20.1934 10.1738 19.8755 10.4644 19.829 10.5066L19.7442 10.5828L19.7323 10.4345C19.609 8.89604 19.0432 8.00222 17.9722 7.65375C17.1844 7.39741 15.9474 7.4548 15.0365 7.78989C14.6209 7.94302 14.1477 8.21248 13.7925 8.49867C13.5798 8.67007 13.2201 9.03861 13.0381 9.27153C12.5362 9.91416 12.1529 10.6543 11.8262 11.6125C11.7719 11.7721 11.7295 11.9118 11.7323 11.9226C11.7354 11.9352 11.8055 11.9172 11.9197 11.8742C12.3265 11.7214 12.6837 11.6544 13.0908 11.6544C13.4385 11.6544 13.5853 11.682 13.8037 11.789C14.0738 11.9213 14.2467 12.1409 14.3392 12.4695C14.3661 12.5665 14.3718 12.6515 14.3712 12.9727C14.3705 13.3047 14.3645 13.3852 14.3294 13.5466C14.1888 14.1931 13.7925 15.0375 13.1386 16.0865C12.3452 17.3586 11.7667 17.9876 11.362 18.0185C11.2723 18.0249 11.2418 18.0185 11.1423 17.9696C10.7724 17.7882 10.425 17.0665 10.1126 15.8296C9.84995 14.7899 9.68144 13.8896 9.2834 11.3927C9.13065 10.4356 9.08542 10.2006 8.98539 9.84853C8.56669 8.37488 7.79388 7.68 6.63028 7.73121C6.16789 7.75129 5.77347 7.90648 5.15058 8.31388C4.56774 8.69478 4.06271 9.10398 3.19169 9.90104C2.5556 10.4813 1.91659 11.0584 1.27467 11.6323C0.990874 11.885 0.956757 11.9213 0.978727 11.9468C1.12755 12.137 1.2754 12.328 1.42225 12.5197C1.69053 12.8679 1.84871 13.0589 1.86267 13.0512C1.8743 13.0442 1.9751 12.9755 2.08624 12.898C2.48427 12.6208 2.94873 12.3233 3.10975 12.2425C3.2638 12.1661 3.27982 12.1612 3.37907 12.1712C3.62384 12.1957 3.9128 12.4214 4.14335 12.7683C4.44342 13.2192 4.78718 14.0513 5.04874 14.9585C5.33101 15.9879 5.61066 17.018 5.88772 18.0489C6.40723 19.9739 6.68068 20.9548 6.73547 21.095C7.38447 22.7519 8.13298 23.6599 9.0345 23.8838C9.23869 23.9348 9.64293 23.9376 9.91457 23.8897C11.3692 23.6349 13.0185 22.3903 14.9404 20.0977C15.922 18.926 17.0655 17.3643 17.814 16.1709C18.4935 15.0877 19.0823 13.9131 19.3505 13.1057L19.3989 12.96L19.7276 12.7258C20.1135 12.4512 20.2712 12.3496 20.4702 12.2479C20.6046 12.1792 20.6263 12.1735 20.7512 12.1751C21.1962 12.1813 21.4549 12.5514 21.4601 13.1886C21.4617 13.3834 21.4557 13.4182 21.3603 13.7906C21.2391 14.2636 21.0406 14.9914 20.7512 16.0278C20.3482 17.4693 20.1745 18.1696 20.0044 19.0374C19.7455 20.3595 19.7126 21.2126 19.8936 21.9114C19.9874 22.2743 20.0908 22.5121 20.2769 22.7931C20.7442 23.4988 21.4622 23.8442 22.4635 23.8442C23.1427 23.8442 23.9106 23.7124 24.6126 23.4754C25.8827 23.0466 27.0791 22.2951 28.398 21.0978C28.4901 21.0142 28.5681 20.9493 28.5717 20.9532C28.5927 21.0116 28.6111 21.0708 28.627 21.1308C28.7769 21.6548 29.0351 22.1461 29.3344 22.4768C29.7749 22.9635 30.4146 23.3202 31.2083 23.5209C31.7441 23.6565 32.2233 23.7142 32.9573 23.7304C33.4479 23.7415 33.4608 23.7412 33.4479 23.7078C33.3551 23.4671 33.2595 23.0098 33.2132 22.5864C33.1269 21.7968 33.1261 20.5978 33.2117 19.756C33.3696 18.2007 33.8242 16.6764 34.557 15.2462C35.2155 13.9602 35.8423 13.1978 36.4293 12.9675C36.5461 12.9217 36.5998 12.9119 36.7668 12.9055C36.9046 12.9001 37.0059 12.9063 37.0976 12.9256C37.5502 13.0213 37.8053 13.3111 37.9152 13.8541C37.949 14.0204 37.9436 14.6427 37.9059 14.9762C37.8384 15.5692 37.7363 16.0893 37.5249 16.9167C37.2961 17.8116 37.191 18.4228 37.138 19.1633C37.0609 20.238 37.1248 20.9612 37.3561 21.6308C37.7397 22.7421 38.6195 23.3626 40.1734 23.6185C40.6027 23.6892 40.9958 23.7199 41.6192 23.7312C42.1793 23.7417 42.1948 23.7412 42.1839 23.7078C42.178 23.689 42.1364 23.5683 42.0917 23.4401C41.996 23.1652 41.9144 22.7774 41.8707 22.3888C41.8322 22.0452 41.827 20.9854 41.8622 20.6096C42.0307 18.8125 42.6518 17.0637 43.7838 15.2009C44.6044 13.8505 45.3331 13.0898 45.9614 12.9274C46.1131 12.8882 46.4189 12.898 46.5388 12.9464C46.8769 13.0818 47.0666 13.3757 47.1436 13.8845C47.1782 14.1143 47.1782 14.6085 47.1428 14.9456C47.0836 15.5141 46.9216 16.3958 46.7362 17.1556C46.3891 18.5839 46.3046 19.0019 46.2064 19.7832C46.042 21.0896 46.1247 21.9991 46.4685 22.6683C46.7675 23.2509 47.2932 23.6257 48.0175 23.7718C48.5377 23.8774 49.2819 23.8632 49.9766 23.7345C51.4175 23.4684 52.8724 22.7169 54.2743 21.5148L54.5302 21.2955L54.615 21.4422C54.7426 21.6549 54.8829 21.8599 55.035 22.056C55.1864 22.2485 55.6579 22.7061 55.8564 22.8538C56.6496 23.444 57.6302 23.7873 58.8372 23.8985C59.3797 23.9484 60.2657 23.9368 61.0205 23.8699C63.3797 23.6619 65.7162 22.9434 67.9863 21.7276C68.3324 21.5426 69.1473 21.0765 69.4174 20.9092C69.5399 20.8333 69.6459 20.7715 69.6526 20.7715C69.6599 20.7715 69.7007 20.8418 69.7433 20.9282C69.9966 21.4373 70.4347 22.0254 70.8496 22.4145ZM78.972 18.1508C78.1522 19.5107 77.1925 20.2612 76.1056 20.3924C75.7378 20.4364 75.4099 20.4063 75.1878 20.3075C74.8922 20.1762 74.6192 19.8787 74.4088 19.46C74.108 18.8606 73.9901 18.2234 74.0385 17.4564C74.1289 16.0229 74.5339 14.749 75.3029 13.4809C75.8965 12.5024 76.5306 11.8714 77.2969 11.498C77.7001 11.3011 78.1157 11.1917 78.5882 11.1582C79.0048 11.1284 79.2036 11.1801 79.4222 11.3744C79.6282 11.5579 79.7818 11.8294 79.9322 12.2785C80.0976 12.7714 80.1715 13.2141 80.1875 13.8086C80.2268 15.2735 79.8115 16.7585 78.972 18.1508ZM59.3326 17.2381C61.0048 16.5726 62.5163 15.3944 63.4093 14.0604C63.6874 13.6448 63.8632 13.2508 63.9185 12.9185C63.9451 12.761 63.9319 12.463 63.8913 12.2942C63.8593 12.1596 63.7768 11.9912 63.7014 11.9058C63.6261 11.8209 63.4892 11.7362 63.3542 11.6922C63.2193 11.6477 62.8394 11.6387 62.6639 11.6757C61.9177 11.833 61.1829 12.4015 60.4437 13.3949C59.6406 14.4735 59.2018 15.4911 59.1005 16.51C59.0741 16.7725 59.0756 17.321 59.1028 17.321C59.1142 17.3212 59.2175 17.2837 59.3326 17.2381Z" fill="#212B36"/>
</svg>
